<?xml version="1.0" encoding="utf-8"?>
<!-- Generator: Adobe Illustrator 23.0.3, SVG Export Plug-In . SVG Version: 6.00 Build 0)  -->
<svg version="1.1" id="Layer_1" xmlns="http://www.w3.org/2000/svg" xmlns:xlink="http://www.w3.org/1999/xlink" x="0px" y="0px"
	 viewBox="0 0 51 70" style="enable-background:new 0 0 51 70;" xml:space="preserve">
<style type="text/css">
	.st0{fill:#57595C;}
</style>
<title>fb-blue</title>
<g>
	<path class="st0" d="M25.5,31.7c2,0,3.6-1.6,3.6-3.6c0-0.7-0.2-1.5-0.6-2.1c-0.6-1-1.7-1.5-3-1.5c-1.2,0-2.2,0.6-3,1.5
		c-0.4,0.6-0.6,1.3-0.6,2.1C21.9,30.1,23.5,31.7,25.5,31.7z"/>
	<polygon class="st0" points="33.4,23.7 33.4,20.6 33.4,20.2 33,20.2 29.9,20.2 30,23.7 	"/>
	<path d="M12.8,41l-0.1-0.1C12.7,40.9,12.7,40.9,12.8,41z"/>
	<path d="M38.2,15.3l0.1,0.1C38.3,15.3,38.3,15.3,38.2,15.3z"/>
	<path d="M12.6,15.4l0.1-0.1C12.7,15.3,12.7,15.3,12.6,15.4z"/>
	<path d="M38.4,40.9L38.3,41C38.3,40.9,38.3,40.9,38.4,40.9z"/>
	<path class="st0" d="M38.4,15.4l-0.1-0.1L25.5,2.5L12.8,15.3l-0.1,0.1L-0.1,28.1l12.7,12.7l0.1,0.1l12.7,12.7l12.7-12.7l0.1-0.1
		l12.7-12.7L38.4,15.4z M35.9,21.8V26v8.4c0,2.2-1.8,3.9-3.9,3.9H19.2c-2.2,0-3.9-1.8-3.9-3.9V26v-4.2c0-2.2,1.8-3.9,3.9-3.9h12.6
		C34,17.9,35.9,19.6,35.9,21.8z"/>
	<path class="st0" d="M31.2,28.1c0,3.1-2.6,5.7-5.7,5.7s-5.7-2.6-5.7-5.7c0-0.7,0.1-1.5,0.4-2.1h-3.1v8.4c0,1.1,0.9,1.9,2,1.9h12.6
		c1.1,0,2-0.9,2-1.9V26h-3.1C30.9,26.6,31.2,27.4,31.2,28.1z"/>
</g>
</svg>
