<?xml version="1.0" encoding="UTF-8"?>
<svg id="Logo" xmlns="http://www.w3.org/2000/svg" viewBox="0 0 1000 300">
  <defs>
    <style>
      .cls-1 {
        letter-spacing: -.05em;
      }

      .cls-2 {
        fill: #4e4e4e;
        font-family: BlairITC-Medium, 'Blair ITC';
        font-size: 40px;
        font-weight: 500;
      }

      .cls-3 {
        letter-spacing: -.07em;
      }

      .cls-4 {
        letter-spacing: -.05em;
      }

      .cls-5 {
        letter-spacing: 0em;
      }

      .cls-6 {
        letter-spacing: -.04em;
      }

      .cls-7 {
        letter-spacing: 0em;
      }

      .cls-8 {
        letter-spacing: 0em;
      }

      .cls-9 {
        fill: #575b5e;
      }

      .cls-10 {
        letter-spacing: -.04em;
      }

      .cls-11 {
        letter-spacing: 0em;
      }

      .cls-12 {
        letter-spacing: -.04em;
      }

      .cls-13 {
        fill: #5cb659;
      }
    </style>
  </defs>
  <g id="Diamonds">
    <rect class="cls-13" x="30.86" y="53.78" width="32.07" height="32.07" transform="translate(63.1 -12.71) rotate(45)"/>
    <rect class="cls-9" x="30.77" y="112.27" width="32.07" height="32.07" transform="translate(104.44 4.49) rotate(45)"/>
    <rect class="cls-13" x="30.68" y="170.76" width="32.07" height="32.07" transform="translate(145.77 21.68) rotate(45)"/>
    <rect class="cls-9" x="89.32" y="53.62" width="32.07" height="32.07" transform="translate(80.11 -54.1) rotate(45)"/>
    <rect class="cls-13" x="60.03" y="82.91" width="32.07" height="32.07" transform="translate(92.25 -24.81) rotate(45)"/>
    <rect class="cls-13" x="89.23" y="112.11" width="32.07" height="32.07" transform="translate(121.45 -36.9) rotate(45)"/>
    <rect class="cls-13" x="59.94" y="141.4" width="32.07" height="32.07" transform="translate(133.58 -7.61) rotate(45)"/>
    <rect class="cls-9" x="89.14" y="170.6" width="32.07" height="32.07" transform="translate(162.78 -19.71) rotate(45)"/>
  </g>
  <g id="_x31_904labs">
    <path class="cls-9" d="M144.18,85.41v-23.74l26.6-15.15h24.69v162.93h-22.78V68.71l-28.51,16.7Z"/>
    <path class="cls-9" d="M212.99,101.1c0-15.03,4.7-27.93,14.1-38.68,9.4-10.75,23.14-16.13,41.24-16.13,36.81,0,55.22,25.05,55.22,75.14,0,10.99-.99,20.98-2.99,29.98s-4.55,16.46-7.67,22.38c-3.12,5.92-6.89,11.16-11.3,15.72-4.41,4.56-8.76,8.06-13.06,10.52-4.29,2.45-8.96,4.44-13.99,5.96-5.04,1.52-9.41,2.51-13.11,2.98-3.71.47-7.4.7-11.07.7-8.27,0-16.49-1.17-24.68-3.51v-20.1c6.63,1.87,13.5,2.8,20.6,2.8h.82c14,0,25.49-3.89,34.47-11.66,8.98-7.77,14.99-18.93,18.02-33.47-8.63,5.55-19.72,8.32-33.25,8.32-18.72,0-32.29-4.96-40.72-14.89-8.43-9.93-12.64-21.95-12.64-36.06ZM235.31,101.1c0,20.57,11,30.85,33.01,30.85,13.69,0,24.65-3.93,32.9-11.8-.16-10.21-1.11-18.93-2.86-26.18-1.75-7.25-3.69-12.62-5.83-16.13-2.14-3.51-4.96-6.17-8.46-8.01-3.5-1.83-6.24-2.86-8.22-3.1s-4.49-.35-7.52-.35c-7,0-12.89,1.27-17.67,3.8-4.78,2.53-8.17,5.84-10.15,9.93s-3.35,7.77-4.08,11.04c-.74,3.27-1.11,6.58-1.11,9.93Z"/>
    <path class="cls-9" d="M341.06,127.78c0-12.92,1.32-24.36,3.97-34.32,2.64-9.96,5.99-17.84,10.04-23.64,4.05-5.8,8.95-10.54,14.71-14.24,5.76-3.7,11.42-6.17,16.99-7.41,5.56-1.24,11.54-1.87,17.92-1.87,8.09,0,15.53,1.15,22.3,3.44,6.77,2.3,13.43,6.23,19.96,11.79,6.54,5.57,11.69,13.97,15.47,25.22,3.77,11.25,5.66,24.92,5.66,41.03,0,13.07-1.32,24.56-3.97,34.44-2.65,9.88-5.99,17.76-10.04,23.64-4.05,5.88-8.95,10.66-14.71,14.36-5.76,3.7-11.38,6.17-16.87,7.41-5.49,1.24-11.42,1.87-17.8,1.87s-12.36-.62-17.92-1.87c-5.57-1.24-11.23-3.72-16.99-7.41-5.76-3.7-10.66-8.48-14.71-14.36-4.05-5.88-7.4-13.76-10.04-23.64-2.65-9.88-3.97-21.36-3.97-34.44ZM365.87,100.52c-1.67,7.67-2.51,16.75-2.51,27.26s.83,19.63,2.51,27.38c1.67,7.75,3.77,13.76,6.3,18.04,2.53,4.28,5.74,7.7,9.63,10.27,3.89,2.57,7.57,4.2,11.03,4.9,3.46.7,7.41,1.05,11.85,1.05s8.17-.35,11.67-1.05c3.5-.7,7.18-2.33,11.03-4.9,3.85-2.57,7.04-5.99,9.57-10.27,2.53-4.28,4.63-10.29,6.3-18.04,1.67-7.74,2.51-16.87,2.51-27.38s-.84-19.59-2.51-27.26c-1.67-7.66-3.78-13.64-6.3-17.92-2.53-4.28-5.72-7.7-9.57-10.27-3.85-2.57-7.53-4.2-11.03-4.9s-7.4-1.05-11.67-1.05-8.39.35-11.85,1.05c-3.46.7-7.14,2.33-11.03,4.9-3.89,2.57-7.1,5.99-9.63,10.27-2.53,4.28-4.63,10.26-6.3,17.92Z"/>
    <path class="cls-9" d="M485.6,157.91v-20.05l71.59-91.4h25.42v91.4h23.15v20.05h-23.15v51.55h-22.79v-51.55h-74.22ZM512.45,137.86h47.37v-58.94l-47.37,58.94Z"/>
    <path class="cls-9" d="M623.28,209.97V46.32h21.44v163.65h-21.44Z"/>
    <path class="cls-9" d="M662.24,170.72c0-11.54,4.88-20.56,14.63-27.05,9.76-6.49,23.21-9.74,40.36-9.74,7.3,0,14.37.46,21.21,1.37-.46-9.83-3.14-16.87-8.04-21.14-4.9-4.26-12.94-6.4-24.11-6.4-10.13,0-20.91,1.94-32.34,5.83v-18.28c11.04-4.19,22.81-6.28,35.3-6.28,16.28,0,28.85,4.21,37.71,12.62,8.86,8.42,13.3,20.51,13.3,36.27v33.7c0,2.51-.25,5.01-.75,7.48-.5,2.48-1.68,5.66-3.55,9.54-1.87,3.88-4.42,7.27-7.62,10.17-3.21,2.9-8.03,5.39-14.45,7.48s-13.83,3.14-22.24,3.14-16.17-1.09-22.65-3.27c-6.48-2.18-11.36-4.72-14.64-7.62-3.28-2.9-5.89-6.34-7.84-10.31-1.94-3.97-3.15-7.26-3.6-9.86-.46-2.6-.69-5.16-.69-7.68ZM683.61,170.5c0,13.18,9.35,19.77,28.05,19.77h.34c17.63,0,26.45-6.32,26.45-18.97v-18.86c-5.63-.91-12.39-1.4-20.29-1.48-3.12,0-6.39.28-9.81.85-3.42.57-7.11,1.46-11.06,2.67-3.95,1.21-7.22,3.22-9.81,6.02-2.58,2.8-3.87,6.13-3.87,9.99Z"/>
    <path class="cls-9" d="M777.79,171.62V46.32h21.38v46.08c8.06-2.31,16.39-3.47,24.99-3.47,6.68,0,12.92.82,18.69,2.46,5.77,1.64,11.43,4.48,16.98,8.52,5.55,4.04,9.9,10.12,13.05,18.24,3.15,8.12,4.73,17.98,4.73,29.56,0,10.29-1.2,19.3-3.59,27.04-2.39,7.74-5.34,13.74-8.83,18.01-3.5,4.27-7.69,7.74-12.59,10.41-4.9,2.67-9.42,4.38-13.57,5.14-4.14.76-8.45,1.14-12.93,1.14-8.47,0-15.87-1.05-22.21-3.14-6.34-2.1-11.11-4.59-14.31-7.49-3.21-2.89-5.74-6.28-7.61-10.17-1.87-3.89-3.04-7.09-3.49-9.6-.46-2.51-.69-4.99-.69-7.43ZM799.17,172.85c0,11.6,8.98,17.4,26.93,17.4,4.03,0,7.61-.49,10.73-1.48,3.12-.99,6.28-2.84,9.47-5.57,3.19-2.73,5.65-7.09,7.36-13.08,1.71-5.99,2.57-13.46,2.57-22.4,0-8.42-.86-15.37-2.57-20.87-1.71-5.5-4.17-9.53-7.36-12.11s-6.51-4.32-9.93-5.23c-3.42-.91-7.49-1.36-12.21-1.36-8.75,0-17.08,1.63-24.99,4.89v59.81Z"/>
    <path class="cls-9" d="M895.14,124.77c0-9.54,3.4-17.65,10.21-24.34,6.8-6.68,17.2-10.03,31.19-10.03,10.43,0,20.71,2.52,30.84,7.56v18.25c-9.98-4.57-19.39-6.86-28.24-6.86-15.27,0-22.9,4.91-22.9,14.74,0,3.23,2.03,5.91,6.09,8.04,4.06,2.14,8.95,4.01,14.66,5.63,5.71,1.61,11.44,3.56,17.17,5.85,5.73,2.29,10.64,6.13,14.72,11.53,4.08,5.4,6.13,12.07,6.13,20.02,0,9.3-3.49,17.32-10.46,24.04-6.98,6.73-17.78,10.09-32.4,10.09-12.33,0-23.43-2.7-33.28-8.11v-19.28c10,5.63,20.64,8.44,31.92,8.44h.45c7.37,0,12.99-1.33,16.86-3.99,3.87-2.66,5.81-6.06,5.81-10.18,0-4.72-2.01-8.53-6.03-11.42-4.02-2.89-8.93-5.14-14.72-6.75-5.79-1.61-11.56-3.41-17.32-5.4-5.75-1.99-10.64-5.28-14.66-9.9-4.02-4.61-6.03-10.59-6.03-17.94Z"/>
  </g>
  <text class="cls-2" transform="translate(445 260)">A Turnberry Solutions Company</text>
</svg>