<svg viewBox="0 0 105.6 32.7" xmlns="http://www.w3.org/2000/svg"><path d="M-.1-.1h105.7v32.8H-.1z" fill="#fff"/><path d="M13.9 13v-2.6l2.9-1.7h2.7v17.9H17V11.2zm7.6 1.7c0-1.6.5-3.1 1.6-4.3 1.2-1.2 2.8-1.9 4.5-1.8 4 0 6.1 2.8 6.1 8.3 0 1.1-.1 2.2-.3 3.3-.2.9-.5 1.7-.8 2.5-.3.6-.7 1.2-1.2 1.7-.4.5-.9.9-1.4 1.2s-1 .5-1.5.7c-.5.1-.9.2-1.4.3-.4.1-.8.1-1.2.1-.9 0-1.8-.1-2.7-.4V24c.7.2 1.5.3 2.3.3h.1c1.3.1 2.7-.3 3.7-1.2 1-1 1.7-2.3 2-3.7-1.1.7-1.8.9-3.7.9s-3.3-.4-4.5-1.6c-1-1.1-1.6-2.5-1.6-4zm2.5 0c0 2.3 1.2 3.4 3.6 3.4 1.3 0 2.6-.5 3.6-1.4 0-1-.1-1.9-.3-2.9-.1-.6-.4-1.5-.6-1.8s-.6-.6-.9-.8-.7-.4-1-.4-.4-.1-.8 0-1.3.1-1.9.4c-.5.2-.9.7-1.1 1.1s-.3.8-.4 1.2-.2.7-.2 1.2zm11.6 3c0-1.3.1-2.6.4-3.8.2-.9.6-1.8 1.1-2.6.4-.6 1-1.2 1.6-1.6s1.2-.7 1.9-.8 1.3-.2 2-.2c1.7 0 3.4.6 4.6 1.8.8.7 1.4 1.7 1.7 2.7.4 1.5.6 3 .6 4.5 0 1.3-.1 2.6-.4 3.8-.2.9-.6 1.8-1.1 2.6-.4.6-1 1.2-1.6 1.6s-1.2.7-1.9.8c-.6.1-1.3.2-1.9.2-.7 0-1.3-.1-2-.2-.7-.2-1.3-.4-1.9-.8-.7-.4-1.2-.9-1.6-1.6-.5-.8-.9-1.7-1.1-2.6-.3-1.2-.4-2.5-.4-3.8zm2.7-3c-.4 2-.4 4 0 6 .1.7.4 1.4.7 2 .3.4.6.8 1 1.1s.8.4 1.2.5c.5.1.9.1 1.4.1.4 0 .9 0 1.3-.1s.8-.3 1.2-.5c.4-.3.8-.7 1-1.1.3-.6.6-1.3.7-2 .2-1 .3-2 .2-3 0-1-.1-2-.3-3-.1-.7-.4-1.4-.7-2-.3-.4-.6-.8-1-1.1s-.8-.4-1.2-.5-.8-.2-1.2-.2c-.5 0-.9 0-1.4.1-.4.1-.8.3-1.2.5-.4.3-.8.7-1 1.1-.4.7-.6 1.4-.7 2.1zM51.5 21v-2.2l7.9-10h2.7v10h2.5V21h-2.5v5.7h-2.5V21zm2.9-2.2h5.2v-6.6zm12.2 7.9v-18h2.3v18zm4.3-4.3c0-1.2.6-2.3 1.6-3 1.3-.8 2.9-1.1 4.4-1.1.8 0 1.6.1 2.3.1 0-.9-.3-1.7-.9-2.3-.8-.5-1.7-.8-2.6-.7-1.2 0-2.4.2-3.6.6v-2c1.2-.5 2.6-.7 3.9-.7 1.5-.1 3 .4 4.2 1.4 1 1.1 1.6 2.5 1.5 4v3.7c0 .3 0 .5-.1.8-.1.4-.2.7-.4 1-.2.4-.5.8-.8 1.1-.5.4-1 .7-1.6.8-.8.2-1.6.4-2.4.4-.9 0-1.7-.1-2.5-.4-.6-.2-1.1-.5-1.6-.8-.4-.3-.7-.7-.9-1.1-.2-.3-.3-.7-.4-1-.1-.4-.1-.5-.1-.8zm2.4 0c0 1.4 1 2.2 3.1 2.2 1.9 0 2.9-.7 2.9-2.1v-2c-.7-.1-1.4-.2-2.1-.2-.4 0-.7 0-1.1.1l-1.2.3c-.4.1-.8.3-1.2.6-.4.4-.4.6-.4 1.1zm10.3.1V8.7H86v5.1c.9-.3 1.8-.4 2.7-.4.7 0 1.4.1 2.1.2.7.2 1.3.5 1.9.9.7.5 1.2 1.2 1.4 2 .4 1 .5 2.1.5 3.2 0 1-.1 2-.4 3-.2.7-.5 1.4-1 2-.3.5-.8.9-1.4 1.1-.5.3-1 .5-1.5.6s-.9.1-1.4.1c-.8 0-1.6-.1-2.4-.4-.6-.2-1.1-.4-1.6-.8-.3-.3-.6-.7-.8-1.1-.2-.3-.3-.7-.4-1 0-.2-.1-.5-.1-.7zm2.4.1c0 1.3 1 1.9 3 1.9.4 0 .8 0 1.2-.2.4-.1.7-.3 1-.6.4-.4.7-.9.8-1.4.2-.8.3-1.7.3-2.5s-.1-1.5-.3-2.3c-.1-.5-.4-1-.8-1.4-.3-.3-.7-.5-1.1-.6-.5-.1-.9-.2-1.4-.1-.9 0-1.8.2-2.7.5zm10.5-5.3c0-1 .4-2 1.1-2.7 1-.8 2.2-1.1 3.4-1 1.2 0 2.3.3 3.4.8v1.9c-1-.5-2-.7-3.1-.7-1.7 0-2.5.5-2.5 1.6 0 .4.2.6.7.9s1 .5 1.6.6c.6.2 1.3.4 1.9.6.6.3 1.2.7 1.6 1.3.5.6.7 1.4.7 2.2 0 1-.4 1.9-1.1 2.6-1 .8-2.3 1.2-3.6 1.1-1.3 0-2.6-.3-3.7-.9v-2.1c1.1.6 2.3.9 3.5.9.7 0 1.3-.1 1.9-.4.4-.2.6-.7.6-1.1 0-.5-.2-1-.7-1.3s-1-.6-1.6-.7c-.6-.2-1.3-.4-1.9-.6s-1.2-.6-1.6-1.1-.6-1.2-.6-1.9zm-96.196.43l2.475-2.475 2.474 2.475-2.474 2.475zm6.464-6.475L9.243 8.78l2.474 2.475-2.474 2.475zm-.077 12.873l2.475-2.475 2.475 2.475-2.475 2.475z" fill="#565a5d"/><path d="M.315 11.35L2.79 8.873l2.475 2.475-2.475 2.475zM.298 24.117l2.475-2.475 2.475 2.475-2.475 2.474zm3.282-9.67l2.475-2.475 2.474 2.475-2.474 2.475zm3.193 3.191l2.474-2.475 2.475 2.475-2.475 2.475zM3.5 20.94l2.474-2.475L8.45 20.94l-2.475 2.475z" fill="#5bb65a"/></svg>