<?xml version="1.0" encoding="utf-8"?>
<!-- Generator: Adobe Illustrator 23.0.3, SVG Export Plug-In . SVG Version: 6.00 Build 0)  -->
<svg version="1.1" id="Layer_1" xmlns="http://www.w3.org/2000/svg" xmlns:xlink="http://www.w3.org/1999/xlink" x="0px" y="0px"
	 viewBox="0 0 51 70" style="enable-background:new 0 0 51 70;" xml:space="preserve">
<style type="text/css">
	.st0{fill:#62A0A5;}
</style>
<path class="st0" d="M25.5,3L0,28.5L25.5,54L51,28.5L25.5,3z M20.7,37.3h-4.5V23.8h4.5V37.3z M18.9,22c-0.1,0-0.3,0-0.4,0l0,0
	c-1.3,0.1-2.3-0.7-2.4-2.1c0-0.1,0-0.1,0-0.2c0-1.3,1.1-2.3,2.3-2.3c0.1,0,0.1,0,0.2,0c1.3-0.1,2.3,0.7,2.4,2.1
	C21.1,20.7,20.3,21.9,18.9,22z M32.4,37.3v-7.1c0-1.8-0.6-3.1-2.2-3.1c-1.1,0-1.9,0.6-2.2,1.6c-0.1,0.3-0.1,0.6-0.1,1.2v7.4h-4.5
	c0,0,0.1-12.2,0-13.5h4.5v1.9c0.7-1.5,2.3-2.2,3.9-2.2c3,0,5.1,1.9,5.1,6.1v7.8L32.4,37.3z"/>
</svg>
