<?xml version="1.0" encoding="utf-8"?>
<!-- Generator: Adobe Illustrator 23.0.3, SVG Export Plug-In . SVG Version: 6.00 Build 0)  -->
<svg version="1.1" id="Layer_1" xmlns="http://www.w3.org/2000/svg" xmlns:xlink="http://www.w3.org/1999/xlink" x="0px" y="0px"
	 viewBox="0 0 51 70" style="enable-background:new 0 0 51 70;" xml:space="preserve">
<style type="text/css">
	.st0{fill:#57595C;}
</style>
<path class="st0" d="M25.5,3L0,28.5L25.5,54L51,28.5L25.5,3z M35.9,25c0,6.6-5,14.1-14.1,14.1c-2.9,0-5.4-0.7-7.5-2.2
	c0.3,0,0.7,0.1,1.1,0.1c2.2,0,4.5-0.7,6.1-2.1c-2.1,0-4-1.5-4.7-3.4c0.3,0.1,0.5,0.1,0.9,0.1c0.4,0,0.9-0.1,1.4-0.2
	c-2.2-0.4-4-2.4-4-4.9v-0.1c0.6,0.3,1.5,0.5,2.2,0.5c-1.4-0.9-2.1-2.3-2.1-4.1c0-0.9,0.2-1.8,0.6-2.4c2.4,3,6.1,5,10.2,5.2
	C26,25.1,26,24.6,26,24.3c0-2.8,2.2-5,5-5c1.5,0,2.8,0.5,3.6,1.6c1.1-0.2,2.1-0.6,3.2-1.2c-0.3,1.1-1.1,2.1-2.1,2.8
	c1-0.1,1.9-0.3,2.9-0.7c-0.6,1-1.5,1.8-2.4,2.7L35.9,25z"/>
</svg>
