<svg enable-background="new 0 0 51 70" viewBox="0 0 51 70" xmlns="http://www.w3.org/2000/svg"><path d="m24.8 6-22.5 22.5 22.5 22.5 22.5-22.5zm9.2 19.4c0 5.8-4.4 12.4-12.4 12.4-2.5 0-4.8-.7-6.7-2 .3 0 .7.1 1 .1 2 0 3.9-.7 5.4-1.9-1.9 0-3.5-1.3-4.1-3 .3.1.5.1.8.1.4 0 .8-.1 1.2-.2-2-.4-3.5-2.2-3.5-4.3v-.1c.6.3 1.3.5 2 .5-1.2-.8-1.9-2.1-1.9-3.6 0-.8.2-1.6.6-2.2 2.2 2.6 5.4 4.4 9 4.6-.1-.3-.1-.7-.1-1 0-2.4 2-4.4 4.4-4.4 1.3 0 2.4.5 3.2 1.4 1-.2 1.9-.6 2.8-1.1-.3 1-1 1.9-1.9 2.4.9-.1 1.7-.3 2.5-.7-.6.9-1.3 1.6-2.2 2.3z" fill="#57595c"/></svg>