<?xml version="1.0" encoding="utf-8"?>
<!-- Generator: Adobe Illustrator 26.0.3, SVG Export Plug-In . SVG Version: 6.00 Build 0)  -->
<svg version="1.1" id="Layer_1" xmlns="http://www.w3.org/2000/svg" xmlns:xlink="http://www.w3.org/1999/xlink" x="0px" y="0px"
	 viewBox="0 0 803.8 257.6" style="enable-background:new 0 0 803.8 257.6;" xml:space="preserve">
<style type="text/css">
	.st0{fill:#FFFFFF;}
	.st1{fill:#242D33;}
	.st2{fill:#5BB25A;}
	.st3{fill:#56595C;}
	.st4{fill:#61A0A5;}
</style>
<g>
	<g>
		<path class="st0" d="M749.6,235.2H56.2c-17.9,0-32.5-14.6-32.5-32.5V55c0-17.9,14.6-32.5,32.5-32.5h693.4
			c17.9,0,32.5,14.6,32.5,32.5v147.8C782.1,220.6,767.5,235.2,749.6,235.2z"/>
		<path class="st1" d="M749.6,33.7c5.6,0,11,2.2,15,6.3c4,4,6.3,9.4,6.3,15v147.8c0,5.6-2.2,11-6.3,15c-4,4-9.4,6.3-15,6.3H56.2
			c-5.6,0-11-2.2-15-6.3c-4-4-6.3-9.4-6.3-15V55c0-5.6,2.2-11,6.3-15c4-4,9.4-6.3,15-6.3H749.6 M749.6,22.5H56.2
			c-17.9,0-32.5,14.6-32.5,32.5v147.8c0,17.9,14.6,32.5,32.5,32.5h693.4c17.9,0,32.5-14.6,32.5-32.5V55
			C782.1,37.1,767.5,22.5,749.6,22.5L749.6,22.5z"/>
	</g>
	<g>
		<g>
			<path class="st2" d="M79.7,122.7H115c16.8,0,26.2,10.9,26.2,23.6S131.7,170,115,170H93.8v28.2H79.7V122.7z M113,134.3H93.8v24
				H113c7.9,0,13.7-4.8,13.7-12S121,134.3,113,134.3z"/>
			<path class="st2" d="M180.8,170h-13.9v28.2h-14.1v-75.5H188c15.9,0,26.2,9.7,26.2,23.6c0,13.5-9.4,20.7-19,22.2l19.6,29.6h-16.2
				L180.8,170z M186.1,134.3h-19.2v24h19.2c7.9,0,13.7-4.8,13.7-12S194,134.3,186.1,134.3z"/>
			<path class="st2" d="M265.7,121.4c24,0,41,16.5,41,39c0,22.5-16.9,39-41,39c-24,0-41-16.5-41-39
				C224.7,138,241.6,121.4,265.7,121.4z M265.7,133.2c-16.2,0-26.6,11.7-26.6,27.3c0,15.5,10.3,27.3,26.6,27.3
				c16.1,0,26.6-11.8,26.6-27.3C292.2,144.9,281.8,133.2,265.7,133.2z"/>
			<path class="st2" d="M334.3,143.2v55h-14.1v-75.5h14.4l41,53.5v-53.5h14.1v75.5h-13.6L334.3,143.2z"/>
			<path class="st2" d="M444.2,121.4c24,0,41,16.5,41,39c0,22.5-16.9,39-41,39c-24,0-41-16.5-41-39
				C403.2,138,420.1,121.4,444.2,121.4z M444.2,133.2c-16.2,0-26.6,11.7-26.6,27.3c0,15.5,10.3,27.3,26.6,27.3
				c16.1,0,26.6-11.8,26.6-27.3C470.7,144.9,460.3,133.2,444.2,133.2z"/>
			<path class="st2" d="M498.7,122.7h14.2V168c0,12,7.1,19.8,20.6,19.8c13.3,0,20.4-7.8,20.4-19.8v-45.3h14.2v45.6
				c0,18.8-11.4,31.2-34.6,31.2c-23.3,0-34.7-12.6-34.7-31.1V122.7z"/>
			<path class="st2" d="M599.2,143.2v55h-14.1v-75.5h14.4l41,53.5v-53.5h14.1v75.5H641L599.2,143.2z"/>
			<path class="st2" d="M674.3,177.3c5.5,5.5,14.2,10.4,25.4,10.4c11.5,0,16.1-5.3,16.1-10.3c0-6.8-8.5-8.8-18.3-11.2
				c-13.1-3.1-28.5-6.7-28.5-22.6c0-12.4,11.7-22.1,29.2-22.1c12.5,0,22.6,3.7,30,10.5l-8.1,9.8c-6.2-5.9-14.8-8.6-23.2-8.6
				c-8.3,0-13.6,3.7-13.6,9.4c0,5.9,8.2,7.8,17.7,10.1c13.2,3.2,29,7,29,23.4c0,12.6-9.4,23.3-31,23.3c-14.8,0-25.5-4.9-32.6-12
				L674.3,177.3z"/>
		</g>
		<g>
			<path class="st3" d="M316.2,95.8H293l-4,10.1h-6.3L301,60.2h7.1l18.4,45.7h-6.3L316.2,95.8z M294.7,90.7h19.8l-9.9-25.4
				L294.7,90.7z"/>
			<path class="st3" d="M332.2,95.2c3,3.4,8,6.5,14.4,6.5c8.2,0,10.8-4.4,10.8-7.9c0-5.5-5.6-7-11.6-8.6c-7.3-1.9-15.5-4-15.5-13
				c0-7.5,6.7-12.7,15.7-12.7c7,0,12.4,2.3,16.3,6.4l-3.4,4.2c-3.4-3.8-8.2-5.5-13.2-5.5c-5.5,0-9.4,2.9-9.4,7.3
				c0,4.6,5.3,6,11.1,7.5c7.5,2,16,4.3,16,13.9c0,6.7-4.5,13.4-16.9,13.4c-8,0-13.8-3-17.6-7.3L332.2,95.2z"/>
			<path class="st3" d="M382,85.4l-4.6,5.2V106h-5.7V60.2h5.7v23.7l20.2-23.7h7.1L385.7,82l20.7,24h-7.1L382,85.4z"/>
			<path class="st3" d="M469.7,67.9L454.2,106h-2.3l-15.5-38.1V106h-5.7V60.2h8.2L453,95.1l14.3-34.8h8.2V106h-5.7V67.9z"/>
			<path class="st3" d="M499.4,86.6l-18-26.4h6.7l14.2,21.3l14.2-21.3h6.7l-18,26.4V106h-5.7V86.6z"/>
		</g>
	</g>
	<path class="st4" d="M749.6,22.5c17.9,0,32.5,14.6,32.5,32.5v147.8c0,17.9-14.6,32.5-32.5,32.5H56.2c-17.9,0-32.5-14.6-32.5-32.5
		V55c0-17.9,14.6-32.5,32.5-32.5H749.6 M749.6,11.3H56.2c-5.9,0-11.6,1.2-17,3.5c-5.2,2.2-9.9,5.4-13.9,9.4c-4,4-7.2,8.7-9.4,13.9
		c-2.3,5.4-3.5,11.1-3.5,17v147.8c0,5.9,1.2,11.6,3.5,17c2.2,5.2,5.4,9.9,9.4,13.9c4,4,8.7,7.2,13.9,9.4c5.4,2.3,11.1,3.5,17,3.5
		h693.4c5.9,0,11.6-1.2,17-3.5c5.2-2.2,9.9-5.4,13.9-9.4c4-4,7.2-8.7,9.4-13.9c2.3-5.4,3.5-11.1,3.5-17V55c0-5.9-1.2-11.6-3.5-17
		c-2.2-5.2-5.4-9.9-9.4-13.9c-4-4-8.7-7.2-13.9-9.4C761.2,12.4,755.5,11.3,749.6,11.3L749.6,11.3z"/>
	<path class="st2" d="M749.3,11.2c24.4,0,44.3,19.9,44.3,44.3v146.6c0,24.4-19.9,44.3-44.3,44.3H56.5c-24.4,0-44.3-19.9-44.3-44.3
		V55.5c0-24.4,19.9-44.3,44.3-44.3H749.3 M749.3,0H56.5C49,0,41.7,1.5,34.9,4.4c-6.6,2.8-12.5,6.8-17.6,11.9
		c-5.1,5.1-9.1,11-11.9,17.6C2.4,40.8,1,48,1,55.5v146.6c0,7.5,1.5,14.7,4.4,21.6c2.8,6.6,6.8,12.5,11.9,17.6
		c5.1,5.1,11,9.1,17.6,11.9c6.9,2.9,14.1,4.4,21.6,4.4h692.8c7.5,0,14.7-1.5,21.6-4.4c6.6-2.8,12.5-6.8,17.6-11.9
		c5.1-5.1,9.1-11,11.9-17.6c2.9-6.9,4.4-14.1,4.4-21.6V55.5c0-7.5-1.5-14.7-4.4-21.6c-2.8-6.6-6.8-12.5-11.9-17.6
		c-5.1-5.1-11-9.1-17.6-11.9C764,1.5,756.7,0,749.3,0L749.3,0z"/>
</g>
</svg>
