<svg version="1.1" id="Layer_1" xmlns="http://www.w3.org/2000/svg" x="0" y="0" viewBox="0 0 803.8 257.6" style="enable-background:new 0 0 803.8 257.6" xml:space="preserve"><style>.st2{fill:#5bb25a}.st3{fill:#56595c}</style><path d="M749.6 235.2H56.2c-17.9 0-32.5-14.6-32.5-32.5V55c0-17.9 14.6-32.5 32.5-32.5h693.4c17.9 0 32.5 14.6 32.5 32.5v147.8c0 17.8-14.6 32.4-32.5 32.4z" style="fill:#fff"/><path d="M749.6 33.7c5.6 0 11 2.2 15 6.3 4 4 6.3 9.4 6.3 15v147.8c0 5.6-2.2 11-6.3 15-4 4-9.4 6.3-15 6.3H56.2c-5.6 0-11-2.2-15-6.3-4-4-6.3-9.4-6.3-15V55c0-5.6 2.2-11 6.3-15 4-4 9.4-6.3 15-6.3h693.4m0-11.2H56.2c-17.9 0-32.5 14.6-32.5 32.5v147.8c0 17.9 14.6 32.5 32.5 32.5h693.4c17.9 0 32.5-14.6 32.5-32.5V55c0-17.9-14.6-32.5-32.5-32.5z" style="fill:#242d33"/><path class="st2" d="M79.7 122.7H115c16.8 0 26.2 10.9 26.2 23.6S131.7 170 115 170H93.8v28.2H79.7v-75.5zm33.3 11.6H93.8v24H113c7.9 0 13.7-4.8 13.7-12s-5.7-12-13.7-12zM180.8 170h-13.9v28.2h-14.1v-75.5H188c15.9 0 26.2 9.7 26.2 23.6 0 13.5-9.4 20.7-19 22.2l19.6 29.6h-16.2L180.8 170zm5.3-35.7h-19.2v24h19.2c7.9 0 13.7-4.8 13.7-12s-5.8-12-13.7-12zM265.7 121.4c24 0 41 16.5 41 39s-16.9 39-41 39c-24 0-41-16.5-41-39 0-22.4 16.9-39 41-39zm0 11.8c-16.2 0-26.6 11.7-26.6 27.3 0 15.5 10.3 27.3 26.6 27.3 16.1 0 26.6-11.8 26.6-27.3-.1-15.6-10.5-27.3-26.6-27.3zM334.3 143.2v55h-14.1v-75.5h14.4l41 53.5v-53.5h14.1v75.5h-13.6l-41.8-55zM444.2 121.4c24 0 41 16.5 41 39s-16.9 39-41 39c-24 0-41-16.5-41-39 0-22.4 16.9-39 41-39zm0 11.8c-16.2 0-26.6 11.7-26.6 27.3 0 15.5 10.3 27.3 26.6 27.3 16.1 0 26.6-11.8 26.6-27.3-.1-15.6-10.5-27.3-26.6-27.3zM498.7 122.7h14.2V168c0 12 7.1 19.8 20.6 19.8 13.3 0 20.4-7.8 20.4-19.8v-45.3h14.2v45.6c0 18.8-11.4 31.2-34.6 31.2-23.3 0-34.7-12.6-34.7-31.1v-45.7zM599.2 143.2v55h-14.1v-75.5h14.4l41 53.5v-53.5h14.1v75.5H641l-41.8-55zM674.3 177.3c5.5 5.5 14.2 10.4 25.4 10.4 11.5 0 16.1-5.3 16.1-10.3 0-6.8-8.5-8.8-18.3-11.2-13.1-3.1-28.5-6.7-28.5-22.6 0-12.4 11.7-22.1 29.2-22.1 12.5 0 22.6 3.7 30 10.5l-8.1 9.8c-6.2-5.9-14.8-8.6-23.2-8.6-8.3 0-13.6 3.7-13.6 9.4 0 5.9 8.2 7.8 17.7 10.1 13.2 3.2 29 7 29 23.4 0 12.6-9.4 23.3-31 23.3-14.8 0-25.5-4.9-32.6-12l7.9-10.1z"/><path class="st3" d="M316.2 95.8H293l-4 10.1h-6.3L301 60.2h7.1l18.4 45.7h-6.3l-4-10.1zm-21.5-5.1h19.8l-9.9-25.4-9.9 25.4zM332.2 95.2c3 3.4 8 6.5 14.4 6.5 8.2 0 10.8-4.4 10.8-7.9 0-5.5-5.6-7-11.6-8.6-7.3-1.9-15.5-4-15.5-13 0-7.5 6.7-12.7 15.7-12.7 7 0 12.4 2.3 16.3 6.4l-3.4 4.2c-3.4-3.8-8.2-5.5-13.2-5.5-5.5 0-9.4 2.9-9.4 7.3 0 4.6 5.3 6 11.1 7.5 7.5 2 16 4.3 16 13.9 0 6.7-4.5 13.4-16.9 13.4-8 0-13.8-3-17.6-7.3l3.3-4.2zM382 85.4l-4.6 5.2V106h-5.7V60.2h5.7v23.7l20.2-23.7h7.1l-19 21.8 20.7 24h-7.1L382 85.4zM469.7 67.9 454.2 106h-2.3l-15.5-38.1V106h-5.7V60.2h8.2L453 95.1l14.3-34.8h8.2V106h-5.7V67.9zM499.4 86.6l-18-26.4h6.7l14.2 21.3 14.2-21.3h6.7l-18 26.4V106h-5.7V86.6z"/><path d="M749.6 22.5c17.9 0 32.5 14.6 32.5 32.5v147.8c0 17.9-14.6 32.5-32.5 32.5H56.2c-17.9 0-32.5-14.6-32.5-32.5V55c0-17.9 14.6-32.5 32.5-32.5h693.4m0-11.2H56.2c-5.9 0-11.6 1.2-17 3.5-5.2 2.2-9.9 5.4-13.9 9.4s-7.2 8.7-9.4 13.9c-2.3 5.4-3.5 11.1-3.5 17v147.8c0 5.9 1.2 11.6 3.5 17 2.2 5.2 5.4 9.9 9.4 13.9s8.7 7.2 13.9 9.4c5.4 2.3 11.1 3.5 17 3.5h693.4c5.9 0 11.6-1.2 17-3.5 5.2-2.2 9.9-5.4 13.9-9.4s7.2-8.7 9.4-13.9c2.3-5.4 3.5-11.1 3.5-17V55c0-5.9-1.2-11.6-3.5-17-2.2-5.2-5.4-9.9-9.4-13.9s-8.7-7.2-13.9-9.4c-5.4-2.3-11.1-3.4-17-3.4z" style="fill:#61a0a5"/><path class="st2" d="M749.3 11.2c24.4 0 44.3 19.9 44.3 44.3v146.6c0 24.4-19.9 44.3-44.3 44.3H56.5c-24.4 0-44.3-19.9-44.3-44.3V55.5c0-24.4 19.9-44.3 44.3-44.3h692.8m0-11.2H56.5C49 0 41.7 1.5 34.9 4.4c-6.6 2.8-12.5 6.8-17.6 11.9-5.1 5.1-9.1 11-11.9 17.6C2.4 40.8 1 48 1 55.5v146.6c0 7.5 1.5 14.7 4.4 21.6 2.8 6.6 6.8 12.5 11.9 17.6 5.1 5.1 11 9.1 17.6 11.9 6.9 2.9 14.1 4.4 21.6 4.4h692.8c7.5 0 14.7-1.5 21.6-4.4 6.6-2.8 12.5-6.8 17.6-11.9 5.1-5.1 9.1-11 11.9-17.6 2.9-6.9 4.4-14.1 4.4-21.6V55.5c0-7.5-1.5-14.7-4.4-21.6-2.8-6.6-6.8-12.5-11.9-17.6-5.1-5.1-11-9.1-17.6-11.9C764 1.5 756.7 0 749.3 0z"/></svg>