<?xml version="1.0" encoding="utf-8"?>
<!-- Generator: Adobe Illustrator 25.1.0, SVG Export Plug-In . SVG Version: 6.00 Build 0)  -->
<svg version="1.1" id="Layer_1" xmlns="http://www.w3.org/2000/svg" xmlns:xlink="http://www.w3.org/1999/xlink" x="0px" y="0px"
	 viewBox="0 0 251 159.1" style="enable-background:new 0 0 251 159.1;" xml:space="preserve">
<style type="text/css">
	.st0{clip-path:url(#SVGID_2_);fill:#001450;}
	.st1{clip-path:url(#SVGID_2_);fill:#FFFFFF;}
	.st2{clip-path:url(#SVGID_2_);fill-rule:evenodd;clip-rule:evenodd;fill:#FFFFFF;}
	.st3{clip-path:url(#SVGID_2_);fill-rule:evenodd;clip-rule:evenodd;fill:#FABB3F;}
	.st4{clip-path:url(#SVGID_2_);fill-rule:evenodd;clip-rule:evenodd;fill:#001450;}
	.st5{fill:#001450;}
	.st6{font-family:'Roboto-Medium';}
	.st7{font-size:12px;}
	.st8{fill:#000000;font-weight:900;}
	.st9{font-family:'Roboto-Bold';}
</style>
<g>
	<g>
		<defs>
			<rect id="SVGID_1_" x="1.6" y="3.7" width="247.9" height="143.8"/>
		</defs>
		<clipPath id="SVGID_2_">
			<use xlink:href="#SVGID_1_"  style="overflow:visible;"/>
		</clipPath>
		<rect x="82.3" y="52.9" class="st0" width="167.2" height="46.8"/>
		<rect x="89.5" y="82.5" class="st1" width="152.5" height="3.6"/>
		<path class="st1" d="M164.4,72c0,0.3-0.1,0.4-0.5,0.4h-2v-3.1h2c0.3,0,0.5,0.1,0.5,0.4V72z M166.3,72.1v-2.5
			c0-1.2-0.7-1.8-1.9-1.8h-4.3v10.4h1.8v-4.2h2.4C165.6,73.9,166.3,73.3,166.3,72.1 M171.6,69.7c0-0.3-0.1-0.4-0.5-0.4h-1.6
			c-0.4,0-0.5,0.1-0.5,0.4v6.4c0,0.3,0.1,0.5,0.5,0.5h1.6c0.4,0,0.5-0.1,0.5-0.5V69.7z M171.6,78.1h-2.4c-1.2,0-1.9-0.7-1.9-1.8
			v-6.7c0-1.2,0.7-1.8,1.9-1.8h2.4c1.3,0,1.9,0.7,1.9,1.8v6.7C173.4,77.4,172.8,78.1,171.6,78.1 M196.2,76.2c0,0.3-0.1,0.4-0.5,0.4
			h-2v-7.3h2c0.4,0,0.5,0.1,0.5,0.4L196.2,76.2L196.2,76.2z M198,76.3v-6.7c0-1.2-0.7-1.8-1.9-1.8h-4.3v10.4h4.3
			C197.4,78.1,198,77.5,198,76.3 M214.2,69.8c0-0.4-0.1-0.4-0.5-0.4h-2v3.1h2c0.3,0,0.5-0.1,0.5-0.4V69.8z M214.2,73.9h-2.4v4.2
			h-1.8V67.8h4.3c1.2,0,1.9,0.6,1.9,1.8v2.5C216,73.3,215.4,74,214.2,73.9 M219.9,75h-1.8l0.9-3.7h0L219.9,75L219.9,75z M222.6,78.1
			l-2.8-10.3h-1.5l-2.8,10.4h1.8l0.4-1.7h2.6l0.4,1.7L222.6,78.1z M180.9,73.7c0-1.2-0.7-1.8-1.9-1.8h-2c-0.3,0-0.4-0.1-0.4-0.4
			v-1.8c0-0.3,0.1-0.4,0.5-0.4h1.6c0.3,0,0.5,0.1,0.5,0.4V71h1.8v-1.4c0-1.1-0.6-1.8-1.9-1.8h-2.4c-1.3,0-1.9,0.7-1.9,1.8v2
			c0,1.3,0.8,1.9,1.9,1.9h2c0.4,0,0.5,0.1,0.5,0.4v2.3c0,0.3-0.1,0.4-0.5,0.4H177c-0.4,0-0.5-0.1-0.5-0.4v-1.3h-1.8v1.4
			c0,1.1,0.6,1.8,1.9,1.8h2.4c1.2,0,1.9-0.7,1.9-1.8L180.9,73.7L180.9,73.7z M187.8,69.3h-2.3v8.8h-1.8v-8.8h-2.3v-1.5h6.4V69.3
			L187.8,69.3z M190.3,72.4h-2.7v1.5h2.7V72.4z M201.2,78.1h-1.8V67.8h1.8V78.1L201.2,78.1z M208.6,73.7c0-1.2-0.7-1.8-1.9-1.8h-2
			c-0.3,0-0.4-0.1-0.4-0.4v-1.8c0-0.3,0.1-0.4,0.5-0.4h1.6c0.3,0,0.5,0.1,0.5,0.4V71h1.8v-1.4c0-1.1-0.6-1.8-1.9-1.8h-2.4
			c-1.3,0-1.9,0.7-1.9,1.8v2c0,1.3,0.8,1.9,1.9,1.9h2c0.4,0,0.5,0.1,0.5,0.4v2.3c0,0.3-0.1,0.4-0.5,0.4h-1.6c-0.4,0-0.5-0.1-0.5-0.4
			v-1.3h-1.8v1.4c0,1.1,0.6,1.8,1.9,1.8h2.4c1.2,0,1.9-0.7,1.9-1.8L208.6,73.7L208.6,73.7z M227.9,69.3h-2.3v8.8h-1.8v-8.8h-2.3
			v-1.5h6.4L227.9,69.3L227.9,69.3z M234.6,74.9h-1.8v1.3c0,0.3-0.1,0.4-0.5,0.4h-1.6c-0.3,0-0.5-0.1-0.5-0.4v-6.4
			c0-0.3,0.1-0.4,0.5-0.4h1.6c0.4,0,0.4,0.1,0.4,0.4V71h1.8v-1.4c0-1.1-0.6-1.8-1.9-1.8h-2.4c-1.2,0-1.9,0.7-1.9,1.8v6.7
			c0,1.2,0.7,1.8,1.9,1.8h2.4c1.2,0,1.9-0.7,1.9-1.8L234.6,74.9L234.6,74.9z M242,78.1h-1.8v-4.6h-2.4v4.6h-1.8V67.8h1.8V72h2.4
			v-4.2h1.8L242,78.1L242,78.1z M135.4,69.7c0-0.3-0.1-0.4-0.5-0.4h-1.6c-0.4,0-0.5,0.1-0.5,0.4v6.4c0,0.3,0.1,0.5,0.5,0.5h1.6
			c0.4,0,0.5-0.1,0.5-0.5V69.7L135.4,69.7z M135.4,78.1H133c-1.2,0-1.9-0.7-1.9-1.8v-6.7c0-1.2,0.7-1.8,1.9-1.8h2.4
			c1.3,0,1.9,0.7,1.9,1.8v6.7C137.2,77.4,136.6,78.1,135.4,78.1 M114.3,76.3c0,1.2-0.7,1.8-1.8,1.8H110c-1.2,0-1.9-0.7-1.9-1.8v-1.4
			h1.8v1.3c0,0.3,0.1,0.4,0.5,0.4h1.6c0.3,0,0.5-0.1,0.5-0.4v-2.3c0-0.3-0.1-0.4-0.5-0.4h-2c-1.1,0-1.9-0.6-1.9-1.9v-2
			c0-1.1,0.6-1.8,1.9-1.8h2.4c1.2,0,1.9,0.7,1.9,1.8V71h-1.8v-1.3c0-0.3-0.1-0.4-0.5-0.4h-1.6c-0.4,0-0.5,0.1-0.5,0.4v1.8
			c0,0.3,0.1,0.4,0.4,0.4h2c1.1,0,1.9,0.6,1.9,1.8L114.3,76.3L114.3,76.3z M122.1,76.5h-1.8v1.7h1.8L122.1,76.5L122.1,76.5z
			 M121.2,69.3h-2.3v8.8H117v-8.8h-2.3v-1.5h6.4L121.2,69.3L121.2,69.3z M130.6,76.6h-3.4v-8.8h-1.8v10.3h5.2L130.6,76.6L130.6,76.6
			z M144.7,76.3c0,1.1-0.6,1.8-1.9,1.8h-2.4c-1.3,0-1.9-0.7-1.9-1.8v-8.5h1.8v8.4c0,0.3,0.1,0.4,0.5,0.4h1.6c0.3,0,0.4-0.1,0.4-0.4
			v-8.4h1.8L144.7,76.3L144.7,76.3z M147.9,67.8H146v10.3h1.8V67.8z M155.3,76.3c0,1.2-0.7,1.8-1.9,1.8H151c-1.2,0-1.8-0.7-1.8-1.8
			v-1.4h1.8v1.3c0,0.3,0.1,0.4,0.5,0.4h1.6c0.3,0,0.5-0.1,0.5-0.4v-2.3c0-0.3-0.1-0.4-0.5-0.4h-2c-1.1,0-1.9-0.6-1.9-1.9v-2
			c0-1.1,0.6-1.8,1.9-1.8h2.4c1.2,0,1.9,0.7,1.9,1.8V71h-1.8v-1.3c0-0.3-0.1-0.4-0.5-0.4h-1.6c-0.4,0-0.5,0.1-0.5,0.4v1.8
			c0,0.3,0.1,0.4,0.4,0.4h2c1.1,0,1.9,0.6,1.9,1.8L155.3,76.3L155.3,76.3z"/>
		<path class="st2" d="M105.7,79.4H89.5V66.5h16.2L105.7,79.4L105.7,79.4z M91.3,75.1c0.8,0.3,1.6,0.4,2.4,0.3c1.7,0,2.5-0.7,2.5-2
			c0-1.3-0.8-1.6-1.9-1.7c-0.8-0.1-1.1,0-1.1-0.2s0.3-0.2,0.9-0.2c0.5,0,1,0.1,1.4,0.2l0.3-1.5c-0.7-0.3-1.4-0.4-2.1-0.4
			c-1.5,0-2.6,0.6-2.6,2.1c0,1.3,0.6,1.7,1.7,1.8c1.1,0.1,1.2,0,1.2,0.3c0,0.2-0.1,0.3-0.9,0.3c-0.6,0-1.1-0.1-1.6-0.3L91.3,75.1
			 M97.2,74.3c0.7-2.3,1.6-4,2.8-4c0.2,0,0.4,0,0.5,0.1v0v0.7h-1.2v2.1c0,0.4,0.1,0.6,0.5,0.6h0.6l0.1,1.3c-0.4,0.2-0.9,0.3-1.4,0.2
			C98.3,75.4,97.6,75.1,97.2,74.3L97.2,74.3z M103,75.3h-1.8V71C102,71.9,102.6,73.5,103,75.3 M101.2,70.6v-2.9h2.5v7.6h-0.1
			C103.1,73.2,102.3,71.4,101.2,70.6L101.2,70.6z M100.6,70.3c-0.2-0.1-0.4-0.1-0.5-0.1c-1.3,0-2.3,1.3-3,3.1c0-0.1,0-0.3,0-0.4
			v-1.7h-0.7v-0.9l2.1-2.1h1v1.6h1.2L100.6,70.3L100.6,70.3L100.6,70.3z M91.3,76.7v-0.6h1.9v0.6h-0.6v1.7h-0.8v-1.7H91.3z
			 M93.6,77.2c0-0.3,0.1-0.6,0.4-0.8c0.2-0.2,0.5-0.3,0.8-0.3s0.6,0.1,0.8,0.3c0.2,0.2,0.4,0.5,0.4,0.8c0,0.2,0,0.3-0.1,0.5
			c-0.1,0.1-0.1,0.3-0.3,0.4c-0.1,0.1-0.2,0.2-0.4,0.2c-0.1,0.1-0.3,0.1-0.5,0.1c-0.2,0-0.3,0-0.5-0.1c-0.1-0.1-0.3-0.1-0.4-0.3
			c-0.1-0.1-0.2-0.2-0.3-0.4C93.6,77.5,93.6,77.4,93.6,77.2L93.6,77.2z M95.2,77.2v-0.1c0-0.4-0.1-0.5-0.4-0.5
			c-0.3,0-0.4,0.1-0.4,0.5v0.1c0,0.5,0.1,0.6,0.4,0.6C95.1,77.9,95.2,77.8,95.2,77.2L95.2,77.2z M96.5,76.1h1.2c0.1,0,0.3,0,0.4,0.1
			c0.1,0.1,0.3,0.1,0.4,0.2c0.1,0.1,0.2,0.2,0.2,0.4c0,0.1,0.1,0.3,0,0.4c0,0.2,0,0.3,0,0.4c0,0.1-0.1,0.3-0.2,0.4s-0.2,0.2-0.4,0.2
			c-0.1,0.1-0.3,0.1-0.4,0.1l-1.1,0V76.1L96.5,76.1z M97.6,77.8c0.2,0,0.3-0.1,0.3-0.5v-0.1c0-0.4-0.1-0.5-0.3-0.5h-0.3v1.1
			L97.6,77.8z M99.9,76.1h0.8l0.8,2.2h-0.8l-0.1-0.3h-0.7l-0.1,0.3H99L99.9,76.1L99.9,76.1z M100.4,77.6l-0.2-0.6l-0.1-0.4l-0.1,0.4
			l-0.2,0.6H100.4z M102.2,77.6l-0.8-1.5h0.8l0.3,0.7l0.1,0.4l0.1-0.4l0.3-0.7h0.7l-0.7,1.4v0.8h-0.8V77.6z"/>
		<polygon class="st3" points="42.6,12.4 1.6,26.1 1.6,138.8 41.9,120.3 82.3,138.6 82.3,26.1 		"/>
		<path class="st4" d="M42,36.4c5.9,0,10.2,3.6,10.2,9.3c0,5.6-4.3,9.4-10.2,9.4s-10.2-3.8-10.2-9.4C31.8,39.9,36.1,36.4,42,36.4z"
			/>
		<path class="st4" d="M56.5,71.1h-2.1l-3.2-5.5h-1.9v5.5h-1.7V58.6h4c2.4,0,4.4,0.9,4.4,3.4c0,1.8-1.2,3-3,3.3L56.5,71.1z"/>
		<polygon class="st4" points="59.8,79.3 59.8,80.6 54.7,80.6 54.7,84.2 60.4,84.2 60.4,85.6 53.2,85.6 53.2,74.7 60.1,74.7 
			60.1,76 54.7,76 54.7,79.3 		"/>
		<path class="st4" d="M39.2,71.1c-3.8,0-6.6-2.6-6.6-6.2c0-3.7,2.8-6.2,6.6-6.2c3.8,0,6.6,2.5,6.6,6.2C45.8,68.6,43,71.1,39.2,71.1
			z"/>
		<polygon class="st4" points="41.9,85.6 40.2,85.6 39.1,82.9 34,82.9 32.9,85.6 31.2,85.6 35.9,74.7 37.3,74.7 		"/>
		<path class="st4" d="M47.7,74.6c1.5,0,3.1,0.6,3.9,1.6l-1.2,0.9c-0.3-0.4-0.7-0.7-1.2-0.9c-0.5-0.2-1-0.3-1.5-0.3
			c-2.5,0-4.1,1.9-4.1,4.2s1.6,4.2,4.1,4.2c0.6,0,1.1-0.1,1.6-0.3c0.5-0.2,0.9-0.6,1.3-1.1l1.2,0.8c-0.5,0.6-1.1,1.1-1.8,1.4
			c-0.7,0.3-1.5,0.5-2.3,0.4c-3.3,0-5.7-2.3-5.7-5.5C41.9,76.9,44.4,74.6,47.7,74.6z"/>
		<polygon class="st4" points="15.3,36.4 30.4,36.4 30.4,40.2 25.1,40.2 25.1,55 20.6,55 20.6,40.2 15.3,40.2 		"/>
		<polygon class="st4" points="17.2,58.6 19.9,68.6 19.9,68.6 22.9,58.6 24.8,58.6 27.7,68.6 27.7,68.6 30.5,58.6 32.3,58.6 
			28.6,71.1 26.8,71.1 23.8,61.1 23.8,61.1 20.8,71.1 18.9,71.1 15.3,58.6 		"/>
		<polygon class="st4" points="30.4,84.2 30.4,85.6 24.1,85.6 24.1,74.7 25.6,74.7 25.6,84.2 		"/>
		<path class="st4" d="M15.3,74.7h3.3c2.4,0,3.9,0.9,3.9,3c0,2.2-1.7,3.1-4,3.1h-1.7v4.8h-1.5V74.7z"/>
		<path class="st4" d="M64.6,80.6c-1.4-0.4-2.8-1-2.8-2.9c0-2.1,1.9-3,3.7-3c1.2,0,2.2,0.4,3.1,1.2l-1.1,1c-0.5-0.7-1.3-1-2.1-1
			c-1,0-2.1,0.5-2.1,1.7c0,1.2,1,1.4,2.2,1.8c1.5,0.4,3.2,1,3.2,3c0,2.2-1.8,3.2-3.8,3.2c-0.7,0-1.3-0.1-2-0.4
			c-0.6-0.3-1.2-0.6-1.6-1.1l1.2-1c0.3,0.4,0.6,0.7,1.1,0.9c0.4,0.2,0.9,0.3,1.4,0.3c1,0,2.2-0.5,2.2-1.8C67.2,81.4,66,81,64.6,80.6
			z"/>
		<polygon class="st4" points="66.4,71.1 60.5,64.7 60.5,64.7 60.5,71.1 58.7,71.1 58.7,58.7 60.5,58.7 60.5,64.1 60.5,64.1 
			66.1,58.7 68.5,58.7 62.4,64.4 68.8,71.1 		"/>
		<path class="st4" d="M61.4,48h-2.2v7h-4.5V36.4h6.9c4.1,0,7.3,1.5,7.3,5.8S65.3,48,61.4,48z"/>
		<path class="st3" d="M51.5,60.1h-2.1v4h2c1.6,0,2.9-0.5,2.9-2C54.3,60.6,53.1,60.1,51.5,60.1z"/>
		<path class="st3" d="M42,51.2c3.1,0,5.4-2.3,5.4-5.5c0-3.1-2.2-5.4-5.4-5.4s-5.3,2.3-5.3,5.4C36.6,48.8,38.8,51.2,42,51.2z"/>
		<path class="st3" d="M21,77.7c0-1.3-1.1-1.7-2.5-1.7h-1.6v3.5h1.6C19.9,79.5,21,79,21,77.7z"/>
		<path class="st3" d="M39.2,60.1c-2.8,0-4.7,2.2-4.7,4.8s1.8,4.8,4.7,4.8s4.7-2.1,4.7-4.8S42.1,60.1,39.2,60.1z"/>
		<polygon class="st3" points="34.5,81.6 38.6,81.6 36.5,76.5 		"/>
		<path class="st3" d="M61.2,40h-2v4.4h1.9c1.7,0,3.3-0.5,3.3-2.3C64.3,40.4,62.8,40,61.2,40z"/>
		<rect x="15.2" y="89" class="st0" width="53.5" height="0.7"/>
	</g>
	<g>
		<text transform="matrix(1 0 0 1 13.8571 106.0741)" class="st5 st6 st7">2</text>
		<text transform="matrix(1 0 0 1 20.6242 106.0741)" class="st5 st6 st7">0</text>
		<text transform="matrix(1 0 0 1 27.3923 106.0741)" class="st5 st6 st7">1</text>
		<text transform="matrix(1 0 0 1 34.1589 106.0741)" class="st5 st6 st7">8</text>
		<text transform="matrix(1 0 0 1 40.927 106.0741)" class="st5 st6 st7">-</text>
		<text transform="matrix(1 0 0 1 45.1565 106.0741)" class="st5 st6 st7">2</text>
		<text transform="matrix(1 0 0 1 51.924 106.0741)" class="st5 st6 st7">0</text>
		<text transform="matrix(1 0 0 1 58.6911 106.0741)" class="st5 st6 st7">2</text>
		<text transform="matrix(1 0 0 1 65.4587 106.0741)" class="st5 st6 st7">0</text>
		<text transform="matrix(1 0 0 1 107.7551 116.2245)" class="st8 st9 st7">1</text>
		<text transform="matrix(1 0 0 1 114.5222 116.2245)" class="st8 st9 st7">9</text>
		<text transform="matrix(1 0 0 1 121.2898 116.2245)" class="st8 st9 st7">0</text>
		<text transform="matrix(1 0 0 1 128.0564 116.2245)" class="st8 st9 st7">4</text>
		<text transform="matrix(1 0 0 1 134.8249 116.2245)" class="st8 st9 st7">l</text>
		<text transform="matrix(1 0 0 1 138.2087 116.2245)" class="st8 st9 st7">a</text>
		<text transform="matrix(1 0 0 1 144.9753 116.2245)" class="st8 st9 st7">b</text>
		<text transform="matrix(1 0 0 1 151.7429 116.2245)" class="st8 st9 st7">s</text>
		<text transform="matrix(1 0 0 1 157.6648 116.2245)" class="st8 st9 st7"> </text>
		<text transform="matrix(1 0 0 1 160.2019 116.2245)" class="st8 st9 st7">i</text>
		<text transform="matrix(1 0 0 1 163.5857 116.2245)" class="st8 st9 st7">s</text>
		<text transform="matrix(1 0 0 1 169.5075 116.2245)" class="st8 st9 st7"> </text>
		<text transform="matrix(1 0 0 1 172.0456 116.2245)" class="st8 st9 st7">a</text>
		<text transform="matrix(1 0 0 1 178.8122 116.2245)" class="st8 st9 st7"> </text>
		<text transform="matrix(1 0 0 1 181.3513 116.2245)" class="st8 st9 st7">2</text>
		<text transform="matrix(1 0 0 1 188.1179 116.2245)" class="st8 st9 st7">0</text>
		<text transform="matrix(1 0 0 1 194.8855 116.2245)" class="st8 st9 st7">2</text>
		<text transform="matrix(1 0 0 1 201.653 116.2245)" class="st8 st9 st7">0</text>
		<text transform="matrix(1 0 0 1 208.4206 116.2245)" class="st8 st9 st7"> </text>
		<text transform="matrix(1 0 0 1 210.9577 116.2245)" class="st8 st9 st7">T</text>
		<text transform="matrix(1 0 0 1 217.7253 116.2245)" class="st8 st9 st7">o</text>
		<text transform="matrix(1 0 0 1 224.4929 116.2245)" class="st8 st9 st7">p</text>
		<text transform="matrix(1 0 0 1 139.4773 130.6053)" class="st8 st9 st7">W</text>
		<text transform="matrix(1 0 0 1 149.6286 130.6053)" class="st8 st9 st7">o</text>
		<text transform="matrix(1 0 0 1 156.3952 130.6053)" class="st8 st9 st7">r</text>
		<text transform="matrix(1 0 0 1 160.6257 130.6053)" class="st8 st9 st7">k</text>
		<text transform="matrix(1 0 0 1 166.5466 130.6053)" class="st8 st9 st7">p</text>
		<text transform="matrix(1 0 0 1 173.3142 130.6053)" class="st8 st9 st7">l</text>
		<text transform="matrix(1 0 0 1 176.698 130.6053)" class="st8 st9 st7">a</text>
		<text transform="matrix(1 0 0 1 183.4646 130.6053)" class="st8 st9 st7">c</text>
		<text transform="matrix(1 0 0 1 189.3874 130.6053)" class="st8 st9 st7">e</text>
		<text transform="matrix(1 0 0 1 196.154 130.6053)" class="st8 st9 st7">!</text>
		<text transform="matrix(1 0 0 1 125.5202 144.9882)" class="st8 st9 st7">3</text>
		<text transform="matrix(1 0 0 1 132.2868 144.9882)" class="st8 st9 st7"> </text>
		<text transform="matrix(1 0 0 1 134.8249 144.9882)" class="st8 st9 st7">Y</text>
		<text transform="matrix(1 0 0 1 142.4382 144.9882)" class="st8 st9 st7">e</text>
		<text transform="matrix(1 0 0 1 149.2048 144.9882)" class="st8 st9 st7">a</text>
		<text transform="matrix(1 0 0 1 155.9734 144.9882)" class="st8 st9 st7">r</text>
		<text transform="matrix(1 0 0 1 160.2019 144.9882)" class="st8 st9 st7">s</text>
		<text transform="matrix(1 0 0 1 166.1237 144.9882)" class="st8 st9 st7"> </text>
		<text transform="matrix(1 0 0 1 168.6618 144.9882)" class="st8 st9 st7">R</text>
		<text transform="matrix(1 0 0 1 176.2751 144.9882)" class="st8 st9 st7">u</text>
		<text transform="matrix(1 0 0 1 183.0427 144.9882)" class="st8 st9 st7">n</text>
		<text transform="matrix(1 0 0 1 189.8093 144.9882)" class="st8 st9 st7">n</text>
		<text transform="matrix(1 0 0 1 196.5779 144.9882)" class="st8 st9 st7">i</text>
		<text transform="matrix(1 0 0 1 199.9607 144.9882)" class="st8 st9 st7">n</text>
		<text transform="matrix(1 0 0 1 206.7282 144.9882)" class="st8 st9 st7">g</text>
	</g>
</g>
</svg>
