<svg version="1.1" id="Layer_1" xmlns="http://www.w3.org/2000/svg" x="0" y="0" viewBox="0 0 288 165.2" xml:space="preserve"><style>.st0{fill:#001450}</style><path class="st0" d="M95.5 56.2h187.8v52.6H95.5V56.2z"/><path d="M103.6 89.4h171.3v4H103.6v-4zM229 72.9h-2v11.6h2V72.9zm-15.2 6.9h3v-1.7h-3v1.7zm9.5 4.8h-4.8V72.9h4.8c1.3 0 2.1.7 2.1 2v7.5c0 1.4-.6 2.1-2.1 2.2zm.1-2.2v-7.3c0-.3-.1-.4-.6-.4h-2.2v8.2h2.2c.5-.1.6-.2.6-.5zm-14 2.1h2v-9.9h2.6v-1.7h-7.2v1.7h2.6v9.9zm31.5 0h-2V72.9h4.8c1.3 0 2.1.7 2.1 2v2.8c-.2 1.3-.9 2.1-2.2 2h-2.7v4.8zm-.1-6.3h2.2c.3 0 .6-.1.6-.4v-2.6c0-.4-.1-.4-.6-.4h-2.2v3.4zm13.6 6.3h2v-9.9h2.6v-1.7h-7.2v1.7h2.6v9.9zm-21.8 0h2.7c1.3 0 2.1-.8 2.1-2l-.1-2.9c0-1.3-.8-2-2.1-2H233c-.3 0-.4-.1-.4-.4v-2c0-.3.1-.4.6-.4h1.8c.3 0 .6.1.6.4v1.5h2V75c0-1.2-.7-2-2.1-2h-2.7c-1.5 0-2.1.8-2.1 2v2.2c0 1.5.9 2.1 2.1 2.1h2.2c.4 0 .6.1.6.4v2.6c0 .3-.1.4-.6.4h-1.8c-.4 0-.6-.1-.6-.4v-1.5h-2v1.6c-.1 1.3.6 2.1 2 2.1zm29 0h2.7c1.3 0 2.1-.8 2.1-2l.1-1.6h-2v1.5c0 .3-.1.4-.6.4h-1.8c-.3 0-.6-.1-.6-.4v-7.2c0-.3.1-.4.6-.4h1.8c.4 0 .4.1.4.4v1.3h2V75c0-1.2-.7-2-2.1-2h-2.7c-1.3 0-2.1.8-2.1 2v7.5c.1 1.3.9 2 2.2 2zm-16.5.1 3.1-11.7h1.7l3.1 11.6-2.1.1-.4-1.9h-2.9l-.4 1.9h-2.1zM248 81h2l-1-4.2-1 4.2zm24.8-8.1v4.7h-2.7v-4.7h-2v11.6h2v-5.2h2.7v5.2h2V72.9h-2zm-71.4 11.6h2.7c1.3 0 2.1-.8 2.1-2v-2.9c0-1.3-.8-2-2.1-2h-2.2c-.3 0-.4-.1-.4-.4v-2c0-.3.1-.4.6-.4h1.8c.3 0 .6.1.6.4v1.5h2V75c0-1.2-.7-2-2.1-2h-2.7c-1.5 0-2.1.8-2.1 2v2.2c0 1.5.9 2.1 2.1 2.1h2.2c.4 0 .6.1.6.4v2.6c0 .3-.1.4-.6.4H202c-.4 0-.6-.1-.6-.4v-1.5h-2v1.6c-.1 1.3.5 2.1 2 2.1zm-67 0h2.1v-9.9h2.6l-.1-1.7h-7.2v1.7h2.6v9.9zm15.9-2V75c0-1.3.8-2 2.1-2h2.7c1.5 0 2.1.8 2.1 2v7.5c-.1 1.2-.8 2-2.1 2h-2.7c-1.3 0-2.1-.8-2.1-2zm1.9-.2c0 .3.1.6.6.6h1.8c.4 0 .6-.1.6-.6v-7.2c0-.3-.1-.4-.6-.4h-1.8c-.4 0-.6.1-.6.4v7.2zm-2.5.5h-3.8v-9.9h-2v11.6h5.8v-1.7zm-23.1 1.7h2.8c1.2 0 2-.7 2-2l-.1-2.9c0-1.3-.9-2-2.1-2H127c-.3 0-.4-.1-.4-.4v-2c0-.3.1-.4.6-.4h1.8c.4 0 .6.1.6.4v1.5h2V75c0-1.2-.8-2-2.1-2h-2.7c-1.5 0-2.1.8-2.1 2v2.2c0 1.5.9 2.1 2.1 2.1h2.2c.4 0 .6.1.6.4v2.6c0 .3-.2.4-.6.4h-2c-.4 0-.6-.1-.6-.4v-1.5h-2v1.6c0 1.3.8 2.1 2.2 2.1zm34.1 0h2.7c1.5 0 2.1-.8 2.1-2l-.1-9.5h-2v9.4c0 .3-.1.4-.4.4h-1.8c-.4 0-.6-.1-.6-.4V73h-2v9.5c0 1.2.7 2 2.1 2zm-22.5.1h2v-1.9h-2v1.9zm46.7 0h-2V72.9h4.8c1.3 0 2.1.7 2.1 2v2.8c0 1.3-.8 2-2.2 2.1h-2.7v4.8zm0-6.5h2.2c.4 0 .6-.1.6-.4v-2.6c0-.3-.2-.4-.6-.4h-2.2v3.4zm-15.7-5.2H167v11.6h2l.2-11.6zm21.7 9.6V75c0-1.3.8-2 2.1-2h2.7c1.5 0 2.1.8 2.1 2v7.5c-.1 1.2-.8 2-2.1 2H193c-1.3 0-2.1-.8-2.1-2zm2-.2c0 .3.1.6.6.6h1.8c.4 0 .6-.1.6-.6v-7.2c0-.3-.1-.4-.6-.4h-1.8c-.4 0-.6.1-.6.4v7.2zm-20.3 2.2h2.7c1.3 0 2.1-.7 2.1-2v-2.9c0-1.3-.9-2-2.1-2h-2.2c-.3 0-.4-.1-.4-.4v-2c0-.3.1-.4.6-.4h1.8c.4 0 .6.1.6.4v1.5h2V75c0-1.2-.8-2-2.1-2h-2.7c-1.5 0-2.1.8-2.1 2v2.2c0 1.5.9 2.1 2.1 2.1h2.2c.4 0 .6.1.6.4v2.6c0 .3-.2.4-.6.4h-1.8c-.4 0-.6-.1-.6-.4v-1.5h-2v1.6c-.1 1.3.6 2.1 1.9 2.1zM121.7 86h-18.2V71.5h18.2V86zm-5-4.6h2c-.4-2-1.1-3.8-2-4.8v4.8zm-9 .9h-2.1v.7h.6v1.9h.9V83h.7v-.7zm3.2 1.2c0-.3-.2-.7-.4-.9-.2-.2-.6-.3-.9-.3-.3 0-.7.1-.9.3-.3.2-.4.6-.4.9 0 .2 0 .3-.1.4.1.2.2.3.3.4.1.2.3.2.4.3.2.1.3.1.6.1s.4 0 .6-.1c.2 0 .3-.1.4-.2.2-.1.2-.3.3-.4.1-.2.1-.3.1-.5zm.2-4.3c0-1.5-.9-1.8-2.1-1.9-.9-.1-1.2 0-1.2-.2s.3-.2 1-.2c.6 0 1.1.1 1.6.2l.3-1.7c-.8-.3-1.6-.4-2.4-.4-1.7 0-2.9.7-2.9 2.4 0 1.5.7 1.9 1.9 2 1.2.1 1.3 0 1.3.3 0 .2-.1.3-1 .3-.7 0-1.2-.1-1.8-.3l-.2 1.5c.9.3 1.8.4 2.7.3 1.9 0 2.8-.8 2.8-2.3zm.2-2.5h.8v2.4c.8-2 1.9-3.5 3.4-3.5.1 0 .3 0 .6.1l.1-.6h-1.3v-1.8h-1.1l-2.4 2.4v1zm3.3 2.3v-2.4h1.3v-.8c-.1-.1-.3-.1-.6-.1-1.3 0-2.4 1.9-3.1 4.5.4.9 1.2 1.2 2.1 1.1.6.1 1.1 0 1.6-.2l-.1-1.5h-.7c-.4.1-.5-.2-.5-.6zm-.7 4c0-.2-.1-.3-.2-.4-.1-.1-.3-.1-.4-.2-.1-.1-.3-.1-.4-.1h-1.3l.1 2.5h1.2c.1 0 .3 0 .4-.1.2 0 .3-.1.4-.2.1-.1.2-.3.2-.4v-.4c.1-.3 0-.5 0-.7zm3.1 1.7-.9-2.5h-.9l-1 2.5h.9l.1-.3h.8l.1.3h.9zm2.5-2.4h-.8l-.3.8-.1.4-.1-.4-.3-.8h-.9l.9 1.7v.8h.9v-.9l.7-1.6zm0-9.5h-2.8v3.3c1.2.9 2.1 2.9 2.7 5.3h.1v-8.6zm-10 10c-.3 0-.4.1-.4.6v.1c0 .6.1.7.4.7.3.1.4 0 .4-.7.1-.6-.1-.7-.4-.7zm3.2.1h-.3v1.2h.3c.2 0 .3-.1.3-.6v-.1c0-.4-.1-.5-.3-.5zm2.8-.1-.1.4-.2.7h.7l-.2-.7-.2-.4z" fill="#fff"/><path d="M50.9 10.7 4.8 26.1v126.6l45.3-20.8 45.4 20.6V26.1L50.9 10.7z" fill-rule="evenodd" clip-rule="evenodd" fill="#fabb3f"/><path class="st0" d="M23.9 82.9h-3.7v12.2h1.7v-5.4h1.9c2.6 0 4.5-1 4.5-3.5 0-2.3-1.7-3.3-4.4-3.3zm-.1 5.4H22v-3.9h1.8c1.6 0 2.8.4 2.8 1.9s-1.3 2-2.8 2zm2.3-44.1h-6v-4.3h17v4.3h-6v16.6H26V44.2zm7 34.7-3.4-11.2-3.4 11.2h-2.1l-4-14h2.1l3 11.2 3.4-11.2h2.1l3.3 11.2 3.1-11.2h2l-4.2 14h-1.9zm36.4-26H72c4.4 0 8.4-1.7 8.4-6.5s-3.6-6.5-8.2-6.5h-7.8v20.9h5.1v-7.9zm0-9h2.2c1.8 0 3.5.4 3.6 2.4 0 2-1.8 2.6-3.7 2.6h-2.1v-5zm-29.9 28c0 4 3.1 7 7.4 7s7.4-2.8 7.4-7-3.1-7-7.4-7-7.4 2.9-7.4 7zm12.7 0c0 3-2 5.4-5.3 5.4s-5.3-2.5-5.3-5.4c0-2.9 2.1-5.4 5.3-5.4 3.3 0 5.3 2.4 5.3 5.4zm13.6-3.2c0-2.8-2.2-3.8-4.9-3.8h-4.5v14h1.9v-6.2h2.1l3.6 6.2h2.4l-3.9-6.5c2-.4 3.3-1.7 3.3-3.7zM60.7 71h-2.2v-4.5h2.4c1.8 0 3.1.6 3.1 2.2S62.5 71 60.7 71zM50.2 60.9c6.6 0 11.5-4.3 11.5-10.6 0-6.4-4.8-10.4-11.5-10.4s-11.5 3.9-11.5 10.4c0 6.3 4.8 10.6 11.5 10.6zm0-16.6c3.6 0 6.1 2.6 6.1 6.1 0 3.6-2.6 6.2-6.1 6.2-3.6 0-6.1-2.7-6-6.2 0-3.5 2.4-6.1 6-6.1zM31.7 93.6h5.4v1.6H30V82.9h1.7v10.7zm28.1-1.5 1.3.9c-.6.7-1.2 1.2-2 1.6-.8.3-1.7.6-2.6.4-3.7 0-6.4-2.6-6.4-6.2-.1-3.5 2.7-6.1 6.4-6.1 1.7 0 3.5.7 4.4 1.8l-1.3 1c-.3-.4-.8-.8-1.3-1s-1.1-.3-1.7-.3c-2.8 0-4.6 2.1-4.6 4.7s1.8 4.7 4.6 4.7c.7 0 1.2-.1 1.8-.3s1-.6 1.4-1.2zm13.3-20.7 7.2 7.5h-2.7L71 71.7v7.2h-2V65h2v6l6.3-6.1H80l-6.9 6.5zm7.1 20.2c0 2.5-2 3.6-4.3 3.6-.8 0-1.5-.1-2.2-.4-.7-.3-1.3-.7-1.8-1.2l1.3-1.1c.3.4.7.8 1.2 1 .4.2 1 .3 1.6.3 1.1 0 2.5-.6 2.5-2 0-1.2-1.3-1.7-2.9-2.1-1.6-.4-3.1-1.1-3.1-3.3 0-2.4 2.1-3.4 4.2-3.4 1.3 0 2.5.4 3.5 1.3L79 85.4c-.6-.8-1.5-1.1-2.4-1.1-1.1 0-2.4.6-2.4 1.9 0 1.3 1.1 1.6 2.5 2 1.6.5 3.5 1.1 3.5 3.4zm-15.8 2h6.4v1.6h-8.1V82.9h7.8v1.5h-6.1v3.7h5.7v1.5h-5.7v4zM43.3 82.9 38 95.2h2l1.2-3h5.7l1.2 3H50L44.8 83h-1.5zm-1.6 7.8 2.2-5.7 2.4 5.7h-4.6zM20.2 99h60.1v.8H20.2V99zm5.4 13.6h-6.4v-1.1l3.1-3.5c.4-.6.8-.9 1-1.2.2-.3.3-.7.3-1 0-.4-.1-.8-.3-1.1-.2-.3-.6-.4-1-.4-.6 0-.9.1-1.2.4-.3.3-.4.8-.4 1.3h-1.6c0-.6.1-1.1.4-1.6.3-.4.7-.8 1.1-1.1s1-.3 1.7-.3c.9 0 1.7.2 2.2.7.6.4.8 1.1.8 1.9 0 .4-.1 1-.4 1.5-.3.4-.7 1.1-1.3 1.8l-2.4 2.5h4.5v1.3h-.1zm7.4-4.1c0 1.3-.2 2.5-.8 3.1-.6.7-1.3 1-2.4 1-1 0-1.8-.3-2.4-1-.6-.7-.8-1.7-.8-3V107c0-1.3.2-2.4.8-3.1.6-.8 1.3-1 2.4-1 1 0 1.8.3 2.4 1 .6.7.8 1.7.8 3v1.6zm-1.6-1.8c0-.9-.1-1.6-.3-2-.2-.4-.7-.7-1.1-.7-.6 0-.9.2-1.1.6-.2.3-.3 1-.3 1.9v2.1c0 .9.1 1.6.3 2 .2.4.7.7 1.1.7.6 0 .9-.2 1.1-.6.2-.3.3-1 .3-1.9v-2.1zm7.3 5.9h-1.6v-7.8l-2.4.8v-1.3l3.7-1.3h.2v9.6zm9.3-7.1c0 .4-.1.9-.3 1.2-.2.3-.6.7-1 .9.4.2.9.6 1.1.9.2.3.4.9.4 1.3 0 .9-.3 1.5-.9 2-.6.6-1.3.8-2.2.8-.9 0-1.7-.2-2.2-.8-.6-.6-.9-1.1-.9-2 0-.6.1-1 .4-1.3.3-.3.7-.7 1.1-.9-.4-.2-.8-.4-1-.9-.2-.4-.3-.8-.3-1.2 0-.8.2-1.5.8-1.9.6-.4 1.2-.7 2.1-.7.9 0 1.6.2 2.1.7.6.4.8 1.1.8 1.9zm-1.4 4.4c0-.4-.1-.9-.4-1.1-.3-.2-.7-.4-1.1-.4s-.8.1-1.1.4c-.3.3-.4.7-.4 1.1 0 .4.1.9.4 1.1s.7.4 1.1.4.9-.1 1.1-.4c.2-.3.4-.7.4-1.1zm-.1-4.4c0-.4-.1-.8-.3-1-.2-.2-.6-.4-1-.4s-.8.1-1 .3c-.2.2-.3.6-.3 1s.1.8.3 1c.2.2.6.3 1 .3s.8-.1 1-.3c.2-.2.3-.4.3-.9zm6.3 3.6h-3.5v-1.2h3.5v1.2zm7.9 3.5h-6.4v-1.1l3.1-3.5c.4-.6.8-.9 1-1.2.2-.3.3-.7.3-1 0-.4-.1-.8-.3-1.1-.2-.3-.6-.4-1-.4-.6 0-.9.1-1.2.4-.3.3-.4.8-.4 1.3h-1.6c0-.6.1-1.1.4-1.6.3-.4.7-.8 1.1-1.1s1-.3 1.7-.3c.9 0 1.7.2 2.2.7.6.4.8 1.1.8 1.9 0 .4-.1 1-.4 1.5-.3.4-.7 1.1-1.3 1.8l-2.4 2.5h4.5v1.3h-.1zm7.4-4.1c0 1.3-.2 2.5-.8 3.1-.6.7-1.3 1-2.4 1s-1.8-.3-2.4-1c-.6-.7-.8-1.7-.8-3V107c0-1.3.2-2.4.8-3.1.6-.8 1.3-1 2.4-1 1 0 1.8.3 2.4 1 .6.7.8 1.7.8 3v1.6zm-1.5-1.8c0-.9-.1-1.6-.3-2-.2-.4-.7-.7-1.1-.7-.6 0-.9.2-1.1.6-.2.3-.4 1.1-.4 2v2.1c0 .9.1 1.6.3 2 .2.4.7.7 1.1.7.6 0 .9-.2 1.1-.6s.3-1 .3-1.9v-2.2h.1zm9.4 5.9h-6.4v-1.1l3.1-3.5c.4-.6.8-.9 1-1.2.2-.3.3-.7.3-1 0-.4-.1-.8-.3-1.1-.2-.3-.6-.4-1-.4-.6 0-.9.1-1.2.4-.3.3-.4.8-.4 1.3h-1.6c0-.6.1-1.1.4-1.6.3-.4.7-.8 1.1-1.1.4-.3 1-.3 1.7-.3.9 0 1.7.2 2.2.7.6.4.8 1.1.8 1.9 0 .4-.1 1-.4 1.5-.3.4-.7 1.1-1.3 1.8l-2.4 2.5h4.5v1.3H76zm5.5 0h-1.6v-7.8l-2.4.8v-1.3l3.7-1.3h.2v9.6zm24.2 4.1-1.3 1.4-.6-.6 2.1-2.1h.9v8.3h-1v-7zm3.5 5.3c.4.5.9.8 1.8.8 1.7 0 2.3-1.7 2.3-3.2v-.3c-.4.6-1.3 1.3-2.3 1.3-1.5 0-2.7-.9-2.7-2.6 0-1.4 1.1-2.7 2.9-2.7 2.3 0 3.2 2 3.2 4.3 0 2.2-1 4.3-3.4 4.3-1.1 0-1.8-.4-2.3-1l.5-.9zm2-5.9c-1.3 0-1.9 1-1.9 1.7 0 1.2.8 1.8 1.9 1.8.8 0 1.6-.5 2.1-1.2-.1-1-.6-2.3-2.1-2.3zm7.6-.9c2.3 0 3.2 2.2 3.2 4.3 0 2-.9 4.3-3.2 4.3-2.3 0-3.2-2.3-3.2-4.3 0-2.1.9-4.3 3.2-4.3zm0 .9c-1.6 0-2.1 1.7-2.1 3.3 0 1.6.5 3.4 2.1 3.4s2.1-1.7 2.1-3.4c0-1.6-.5-3.3-2.1-3.3zm8.1 5.4H123v-.9l3.5-5.3h1.4v5.3h1.2v.9H128v2.1h-1v-2.1zm-2.9-.9h2.9v-4.3l-2.9 4.3zm6.4-5.3h.9v8.3h-.9v-8.3zm6.6 7.6c-.5.5-1.2.8-2 .8-1 0-2.1-.7-2.1-2s1.1-2 2.1-2c.8 0 1.5.3 2 .8v-1.1c0-.8-.6-1.3-1.5-1.3-.7 0-1.3.3-1.8.8l-.4-.6c.6-.7 1.4-1 2.4-1 1.3 0 2.3.6 2.3 2v4.1h-1v-.5zm0-1.7c-.4-.5-1-.7-1.6-.7-.9 0-1.5.5-1.5 1.3s.6 1.3 1.5 1.3c.7 0 1.3-.2 1.6-.7v-1.2zm2.8-5.9h.9v3.2c.5-.7 1.2-1.1 2-1.1 1.6 0 2.7 1.2 2.7 3.1 0 1.9-1.1 3.1-2.7 3.1-.8 0-1.6-.4-2-1v.9h-.9v-8.2zm2.7 7.6c1.2 0 1.9-1 1.9-2.3 0-1.3-.7-2.3-1.9-2.3-.7 0-1.5.4-1.8 1v2.7c.3.5 1.1.9 1.8.9zm4.4-.8c.4.5 1.2.9 2 .9.9 0 1.4-.4 1.4-1 0-.7-.7-.9-1.5-1.1-1-.2-2.2-.5-2.2-1.7 0-.9.8-1.7 2.2-1.7 1 0 1.7.4 2.2.9l-.4.6c-.4-.4-1-.8-1.8-.8s-1.3.4-1.3.9c0 .6.7.8 1.5 1 1 .2 2.2.5 2.2 1.9 0 1-.8 1.8-2.4 1.8-1 0-1.8-.3-2.4-.9l.5-.8zm8.8-6.1c0-.3.3-.6.6-.6s.6.3.6.6-.3.6-.6.6-.6-.3-.6-.6zm.2 1.6h.9v6h-.9v-6zm2.7 4.5c.4.5 1.2.9 2 .9.9 0 1.4-.4 1.4-1 0-.7-.7-.9-1.5-1.1-1-.2-2.2-.5-2.2-1.7 0-.9.8-1.7 2.2-1.7 1 0 1.7.4 2.2.9l-.4.6c-.4-.4-1-.8-1.8-.8s-1.3.4-1.3.9c0 .6.7.8 1.5 1 1 .2 2.2.5 2.2 1.9 0 1-.8 1.8-2.4 1.8-1 0-1.8-.3-2.4-.9l.5-.8zm12.8.8c-.5.5-1.2.8-2 .8-1 0-2.1-.7-2.1-2s1.1-2 2.1-2c.8 0 1.5.3 2 .8v-1.1c0-.8-.6-1.3-1.5-1.3-.7 0-1.3.3-1.8.8l-.4-.6c.6-.7 1.4-1 2.4-1 1.3 0 2.3.6 2.3 2v4.1h-.9v-.5zm0-1.7c-.4-.5-1-.7-1.6-.7-.9 0-1.5.5-1.5 1.3s.6 1.3 1.5 1.3c.7 0 1.3-.2 1.6-.7v-1.2zm5.7 1.6c3-2.3 4.6-3.7 4.6-5.1 0-1.1-.9-1.5-1.7-1.5-1 0-1.8.4-2.2 1l-.6-.7c.6-.8 1.7-1.3 2.9-1.3 1.4 0 2.8.8 2.8 2.4 0 1.7-1.7 3.2-4 5h4.1v.9h-5.7v-.7zm10.4-7.6c2.3 0 3.2 2.2 3.2 4.3 0 2-.9 4.3-3.2 4.3-2.3 0-3.2-2.3-3.2-4.3 0-2.1.9-4.3 3.2-4.3zm0 .9c-1.6 0-2.1 1.7-2.1 3.3 0 1.6.5 3.4 2.1 3.4s2.1-1.7 2.1-3.4c0-1.6-.5-3.3-2.1-3.3zm4.5 6.7c3-2.3 4.6-3.7 4.6-5.1 0-1.1-.9-1.5-1.7-1.5-1 0-1.8.4-2.2 1l-.6-.7c.6-.8 1.7-1.3 2.9-1.3 1.4 0 2.8.8 2.8 2.4 0 1.7-1.7 3.2-4 5h4.1v.9H192v-.7zm8.8-6.1-1.3 1.4-.6-.6 2.1-2.1h.9v8.3h-1v-7zm-94.6 13.9h-2.4V129h6.6v1.5H108v6.7h-1.8v-6.6zm3.7 3.7c0-1.7 1.2-3.1 3.2-3.1s3.2 1.4 3.2 3.1c0 1.7-1.2 3.1-3.2 3.1s-3.2-1.4-3.2-3.1zm4.7 0c0-.9-.6-1.7-1.5-1.7-1 0-1.5.8-1.5 1.7 0 .9.5 1.7 1.5 1.7.9 0 1.5-.8 1.5-1.7zm2.8 5.3v-8.3h1.6v.8c.5-.6 1.1-.9 1.8-.9 1.5 0 2.7 1.1 2.7 3.1s-1.1 3.1-2.7 3.1c-.7 0-1.4-.3-1.8-.9v3h-1.6zm2.9-7.1c-.5 0-1.1.3-1.4.7v2.1c.3.4.8.7 1.4.7.9 0 1.5-.7 1.5-1.7 0-1.1-.6-1.8-1.5-1.8zm12.4-.9-1.4 5.7h-1.9L127 129h2l1.4 6 1.6-6h1.4l1.6 6 1.4-6h2l-2.4 8.3h-1.9l-1.4-5.7zm5.6 2.7c0-1.7 1.2-3.1 3.2-3.1s3.2 1.4 3.2 3.1c0 1.7-1.2 3.1-3.2 3.1s-3.2-1.4-3.2-3.1zm4.7 0c0-.9-.6-1.7-1.5-1.7-1 0-1.5.8-1.5 1.7 0 .9.5 1.7 1.5 1.7s1.5-.8 1.5-1.7zm2.8-3h1.6v.8c.4-.5 1.2-1 1.9-1v1.5h-.4c-.5 0-1.2.3-1.5.7v4h-1.6v-6zm6.8 3.7-.7.8v1.5h-1.6V129h1.6v4.9l2.3-2.7h1.9l-2.4 2.7 2.4 3.3h-2l-1.5-2.2zm4.3 4.6v-8.3h1.6v.8c.5-.6 1.1-.9 1.8-.9 1.5 0 2.7 1.1 2.7 3.1s-1.1 3.1-2.7 3.1c-.7 0-1.4-.3-1.8-.9v3h-1.6zm2.9-7.1c-.5 0-1.1.3-1.4.7v2.1c.3.4.8.7 1.4.7.9 0 1.5-.7 1.5-1.7 0-1.1-.6-1.8-1.5-1.8zm4.4-3.5h1.6v8.3h-1.6V129zm6.7 7.7c-.4.5-1.1.8-1.9.8-1 0-2.1-.6-2.1-2s1.1-1.9 2.1-1.9c.8 0 1.5.2 1.9.7v-.8c0-.6-.5-1-1.3-1-.6 0-1.2.2-1.7.7l-.6-1.1c.7-.6 1.7-.9 2.6-.9 1.4 0 2.6.5 2.6 2.3v3.9h-1.6v-.7zm0-1.6c-.3-.3-.8-.5-1.3-.5-.6 0-1.1.3-1.1.9 0 .6.5.9 1.1.9.5 0 1-.2 1.3-.5v-.8zm5.9-4c1.2 0 2 .5 2.4 1.1l-1 1c-.3-.4-.7-.6-1.3-.6-1 0-1.6.7-1.6 1.7s.7 1.7 1.6 1.7c.5 0 1-.2 1.3-.6l1 1c-.4.6-1.1 1.1-2.4 1.1-1.8 0-3.2-1.3-3.2-3.1 0-2 1.4-3.3 3.2-3.3zm6.1 0c1.8 0 3 1.3 3 3.3v.3h-4.4c.1.8.7 1.4 1.7 1.4.6 0 1.2-.2 1.6-.6l.7 1c-.6.5-1.5.8-2.5.8-1.8 0-3.2-1.2-3.2-3.1 0-1.7 1.3-3.1 3.1-3.1zm-1.4 2.6h2.9c0-.6-.4-1.3-1.5-1.3-.9 0-1.4.7-1.4 1.3zm6.4 1.7c.5 0 1 .5 1 1s-.5 1-1 1-1-.5-1-1 .4-1 1-1zm-1-6.4h1.9l-.2 5.6h-1.4l-.3-5.6zm-79.1 18.7h-3.9v-.9l3.5-5.3h1.4v5.3h1.2v.9h-1.2v2.1h-1v-2.1zm-2.9-.9h2.9v-4.3l-2.9 4.3zm12.1-.5-3.3-4.8h1.2l2.6 3.8 2.6-3.8h1.2l-3.2 4.8v3.5h-1v-3.5zm6.3-2.6c1.8 0 2.9 1.4 2.9 3.2v.2h-4.8c.1 1.1.9 2.1 2.2 2.1.7 0 1.4-.3 1.8-.8l.4.6c-.6.6-1.4.9-2.4.9-1.8 0-3-1.3-3-3.1 0-1.7 1.2-3.1 2.9-3.1zm-2 2.7h3.9c0-.9-.6-2-2-2-1.2 0-1.8 1.1-1.9 2zm10.1 2.7c-.5.5-1.2.8-2 .8-1 0-2.1-.7-2.1-2s1.1-2 2.1-2c.8 0 1.5.3 2 .8v-1.1c0-.8-.6-1.3-1.5-1.3-.7 0-1.3.3-1.8.8l-.4-.6c.6-.7 1.4-1 2.4-1 1.3 0 2.3.6 2.3 2v4.1h-.9v-.5zm0-1.7c-.4-.5-1-.7-1.6-.7-.9 0-1.5.5-1.5 1.3s.6 1.3 1.5 1.3c.7 0 1.3-.2 1.6-.7v-1.2zm2.8-3.6h.9v1c.5-.6 1.2-1.1 2-1.1v1h-.4c-.6 0-1.4.5-1.6 1v4.2h-.9v-6.1zm4.1 4.6c.4.5 1.2.9 2 .9.9 0 1.4-.4 1.4-1 0-.7-.7-.9-1.5-1.1-1-.2-2.2-.5-2.2-1.7 0-.9.8-1.7 2.2-1.7 1 0 1.7.4 2.2.9l-.4.6c-.4-.4-1-.8-1.8-.8s-1.3.4-1.3.9c0 .6.7.8 1.5 1 1 .2 2.2.5 2.2 1.9 0 1-.8 1.8-2.4 1.8-1 0-1.8-.3-2.4-.9l.5-.8zm11.7-1.9h-1.6v3.3h-1v-8.3h3.3c1.5 0 2.6 1 2.6 2.5s-1 2.3-2.1 2.4l2.2 3.4h-1.2l-2.2-3.3zm.5-4h-2.2v3.2h2.2c1 0 1.6-.7 1.6-1.6.1-1-.6-1.6-1.6-1.6zm8.4 6.5c-.5.5-1.2 1-2.1 1-1.3 0-1.9-.6-1.9-1.9v-4.2h.9v3.9c0 1.1.5 1.4 1.3 1.4.7 0 1.4-.4 1.8-.9v-4.4h.9v6h-.9v-.9zm6.8-3.1c0-1.1-.5-1.4-1.3-1.4-.7 0-1.4.4-1.8.9v4.4h-.9v-6h.9v.9c.4-.5 1.2-1 2.1-1 1.3 0 1.9.6 1.9 1.9v4.2h-.9v-3.9zm6.8 0c0-1.1-.5-1.4-1.3-1.4-.7 0-1.4.4-1.8.9v4.4h-.9v-6h.9v.9c.4-.5 1.2-1 2.1-1 1.3 0 1.9.6 1.9 1.9v4.2h-.9v-3.9zm2.7-3.7c0-.3.3-.6.6-.6s.6.3.6.6-.3.6-.6.6c-.4 0-.6-.3-.6-.6zm.1 1.6h.9v6h-.9v-6zm6.9 2.1c0-1.1-.5-1.4-1.3-1.4-.7 0-1.4.4-1.8.9v4.4h-.9v-6h.9v.9c.4-.5 1.2-1 2.1-1 1.3 0 1.9.6 1.9 1.9v4.2h-.9v-3.9zm3.2 4.8c.5.6 1.1.8 1.9.8 1 0 1.9-.5 1.9-1.8v-.9c-.4.6-1.2 1.1-2 1.1-1.6 0-2.7-1.2-2.7-3.1 0-1.9 1.1-3.1 2.7-3.1.8 0 1.5.4 2 1.1v-.9h.9v5.8c0 2-1.4 2.6-2.9 2.6-1 0-1.7-.2-2.4-.9l.6-.7zm3.9-5.2c-.3-.5-1-1-1.8-1-1.2 0-1.9 1-1.9 2.3 0 1.3.7 2.3 1.9 2.3.7 0 1.5-.5 1.8-1v-2.6z"/></svg>