<svg xmlns="http://www.w3.org/2000/svg"
    xmlns:xlink="http://www.w3.org/1999/xlink" version="1.1" id="Layer_1" x="0" y="0" viewBox="0 0 251 159.1" xml:space="preserve">
    <style>.st0,.st3{clip-path:url(#SVGID_2_);fill:#001450}.st3{fill:#fabb3f;fill-rule:evenodd;clip-rule:evenodd}.st5{fill:#001450}.st6{font-family:&apos;Roboto-Medium&apos;}.st7{font-size:12px}.st8{fill:#000;font-weight:900}.st9{font-family:&apos;Roboto-Bold&apos;}</style>
    <defs>
        <path id="SVGID_1_" d="M1.6 3.7h247.9v143.8H1.6z"/>
    </defs>
    <clipPath id="SVGID_2_">
        <use xlink:href="#SVGID_1_" overflow="visible"/>
    </clipPath>
    <rect width="100%" height="100%"/>
    <path class="st0" d="M82.3 52.9h167.2v46.8H82.3z"/>
    <path d="M89.5 82.5H242v3.6H89.5zM164.4 72c0 .3-.1.4-.5.4h-2v-3.1h2c.3 0 .5.1.5.4V72zm1.9.1v-2.5c0-1.2-.7-1.8-1.9-1.8h-4.3v10.4h1.8V74h2.4c1.3-.1 2-.7 2-1.9m5.3-2.4c0-.3-.1-.4-.5-.4h-1.6c-.4 0-.5.1-.5.4v6.4c0 .3.1.5.5.5h1.6c.4 0 .5-.1.5-.5v-6.4zm0 8.4h-2.4c-1.2 0-1.9-.7-1.9-1.8v-6.7c0-1.2.7-1.8 1.9-1.8h2.4c1.3 0 1.9.7 1.9 1.8v6.7c-.1 1.1-.7 1.8-1.9 1.8m24.6-1.9c0 .3-.1.4-.5.4h-2v-7.3h2c.4 0 .5.1.5.4v6.5zm1.8.1v-6.7c0-1.2-.7-1.8-1.9-1.8h-4.3v10.4h4.3c1.3-.1 1.9-.7 1.9-1.9m16.2-6.5c0-.4-.1-.4-.5-.4h-2v3.1h2c.3 0 .5-.1.5-.4v-2.3zm0 4.1h-2.4v4.2H210V67.8h4.3c1.2 0 1.9.6 1.9 1.8v2.5c-.2 1.2-.8 1.9-2 1.8m5.7 1.1h-1.8l.9-3.7.9 3.7zm2.7 3.1-2.8-10.3h-1.5l-2.8 10.4h1.8l.4-1.7h2.6l.4 1.7 1.9-.1zm-41.7-4.4c0-1.2-.7-1.8-1.9-1.8h-2c-.3 0-.4-.1-.4-.4v-1.8c0-.3.1-.4.5-.4h1.6c.3 0 .5.1.5.4V71h1.8v-1.4c0-1.1-.6-1.8-1.9-1.8h-2.4c-1.3 0-1.9.7-1.9 1.8v2c0 1.3.8 1.9 1.9 1.9h2c.4 0 .5.1.5.4v2.3c0 .3-.1.4-.5.4H177c-.4 0-.5-.1-.5-.4v-1.3h-1.8v1.4c0 1.1.6 1.8 1.9 1.8h2.4c1.2 0 1.9-.7 1.9-1.8v-2.6zm6.9-4.4h-2.3v8.8h-1.8v-8.8h-2.3v-1.5h6.4v1.5zm2.5 3.1h-2.7v1.5h2.7v-1.5zm10.9 5.7h-1.8V67.8h1.8v10.3zm7.4-4.4c0-1.2-.7-1.8-1.9-1.8h-2c-.3 0-.4-.1-.4-.4v-1.8c0-.3.1-.4.5-.4h1.6c.3 0 .5.1.5.4V71h1.8v-1.4c0-1.1-.6-1.8-1.9-1.8h-2.4c-1.3 0-1.9.7-1.9 1.8v2c0 1.3.8 1.9 1.9 1.9h2c.4 0 .5.1.5.4v2.3c0 .3-.1.4-.5.4h-1.6c-.4 0-.5-.1-.5-.4v-1.3h-1.8v1.4c0 1.1.6 1.8 1.9 1.8h2.4c1.2 0 1.9-.7 1.9-1.8l-.1-2.6zm19.3-4.4h-2.3v8.8h-1.8v-8.8h-2.3v-1.5h6.4v1.5zm6.7 5.6h-1.8v1.3c0 .3-.1.4-.5.4h-1.6c-.3 0-.5-.1-.5-.4v-6.4c0-.3.1-.4.5-.4h1.6c.4 0 .4.1.4.4V71h1.8v-1.4c0-1.1-.6-1.8-1.9-1.8h-2.4c-1.2 0-1.9.7-1.9 1.8v6.7c0 1.2.7 1.8 1.9 1.8h2.4c1.2 0 1.9-.7 1.9-1.8l.1-1.4zm7.4 3.2h-1.8v-4.6h-2.4v4.6H236V67.8h1.8V72h2.4v-4.2h1.8v10.3zm-106.6-8.4c0-.3-.1-.4-.5-.4h-1.6c-.4 0-.5.1-.5.4v6.4c0 .3.1.5.5.5h1.6c.4 0 .5-.1.5-.5v-6.4zm0 8.4H133c-1.2 0-1.9-.7-1.9-1.8v-6.7c0-1.2.7-1.8 1.9-1.8h2.4c1.3 0 1.9.7 1.9 1.8v6.7c-.1 1.1-.7 1.8-1.9 1.8m-21.1-1.8c0 1.2-.7 1.8-1.8 1.8H110c-1.2 0-1.9-.7-1.9-1.8v-1.4h1.8v1.3c0 .3.1.4.5.4h1.6c.3 0 .5-.1.5-.4v-2.3c0-.3-.1-.4-.5-.4h-2c-1.1 0-1.9-.6-1.9-1.9v-2c0-1.1.6-1.8 1.9-1.8h2.4c1.2 0 1.9.7 1.9 1.8V71h-1.8v-1.3c0-.3-.1-.4-.5-.4h-1.6c-.4 0-.5.1-.5.4v1.8c0 .3.1.4.4.4h2c1.1 0 1.9.6 1.9 1.8l.1 2.6zm7.8.2h-1.8v1.7h1.8v-1.7zm-.9-7.2h-2.3v8.8H117v-8.8h-2.3v-1.5h6.4l.1 1.5zm9.4 7.3h-3.4v-8.8h-1.8v10.3h5.2v-1.5zm14.1-.3c0 1.1-.6 1.8-1.9 1.8h-2.4c-1.3 0-1.9-.7-1.9-1.8v-8.5h1.8v8.4c0 .3.1.4.5.4h1.6c.3 0 .4-.1.4-.4v-8.4h1.8l.1 8.5zm3.2-8.5H146v10.3h1.8V67.8zm7.4 8.5c0 1.2-.7 1.8-1.9 1.8H151c-1.2 0-1.8-.7-1.8-1.8v-1.4h1.8v1.3c0 .3.1.4.5.4h1.6c.3 0 .5-.1.5-.4v-2.3c0-.3-.1-.4-.5-.4h-2c-1.1 0-1.9-.6-1.9-1.9v-2c0-1.1.6-1.8 1.9-1.8h2.4c1.2 0 1.9.7 1.9 1.8V71h-1.8v-1.3c0-.3-.1-.4-.5-.4h-1.6c-.4 0-.5.1-.5.4v1.8c0 .3.1.4.4.4h2c1.1 0 1.9.6 1.9 1.8v2.6z" fill="#fff" clip-path="url(#SVGID_2_)"/>
    <path d="M105.7 79.4H89.5V66.5h16.2v12.9zm-14.4-4.3c.8.3 1.6.4 2.4.3 1.7 0 2.5-.7 2.5-2s-.8-1.6-1.9-1.7c-.8-.1-1.1 0-1.1-.2s.3-.2.9-.2c.5 0 1 .1 1.4.2l.3-1.5c-.7-.3-1.4-.4-2.1-.4-1.5 0-2.6.6-2.6 2.1 0 1.3.6 1.7 1.7 1.8 1.1.1 1.2 0 1.2.3 0 .2-.1.3-.9.3-.6 0-1.1-.1-1.6-.3l-.2 1.3m5.9-.8c.7-2.3 1.6-4 2.8-4 .2 0 .4 0 .5.1v.7h-1.2v2.1c0 .4.1.6.5.6h.6l.1 1.3c-.4.2-.9.3-1.4.2-.8.1-1.5-.2-1.9-1zm5.8 1h-1.8V71c.8.9 1.4 2.5 1.8 4.3m-1.8-4.7v-2.9h2.5v7.6h-.1c-.5-2.1-1.3-3.9-2.4-4.7zm-.6-.3c-.2-.1-.4-.1-.5-.1-1.3 0-2.3 1.3-3 3.1v-2.1h-.7v-.9l2.1-2.1h1v1.6h1.2l-.1.5zm-9.3 6.4v-.6h1.9v.6h-.6v1.7h-.8v-1.7h-.5zm2.3.5c0-.3.1-.6.4-.8.2-.2.5-.3.8-.3s.6.1.8.3c.2.2.4.5.4.8 0 .2 0 .3-.1.5-.1.1-.1.3-.3.4-.1.1-.2.2-.4.2-.1.1-.3.1-.5.1s-.3 0-.5-.1c-.1-.1-.3-.1-.4-.3-.1-.1-.2-.2-.3-.4.1-.1.1-.2.1-.4zm1.6 0v-.1c0-.4-.1-.5-.4-.5-.3 0-.4.1-.4.5v.1c0 .5.1.6.4.6.3.1.4 0 .4-.6zm1.3-1.1h1.2c.1 0 .3 0 .4.1.1.1.3.1.4.2.1.1.2.2.2.4 0 .1.1.3 0 .4v.4c0 .1-.1.3-.2.4s-.2.2-.4.2c-.1.1-.3.1-.4.1h-1.1v-2.2h-.1zm1.1 1.7c.2 0 .3-.1.3-.5v-.1c0-.4-.1-.5-.3-.5h-.3v1.1h.3zm2.3-1.7h.8l.8 2.2h-.8l-.1-.3h-.7l-.1.3H99l.9-2.2zm.5 1.5-.2-.6-.1-.4-.1.4-.2.6h.6zm1.8 0-.8-1.5h.8l.3.7.1.4.1-.4.3-.7h.7l-.7 1.4v.8h-.8v-.7z" clip-path="url(#SVGID_2_)" fill-rule="evenodd" clip-rule="evenodd" fill="#fff"/>
    <path class="st3" d="m42.6 12.4-41 13.7v112.7l40.3-18.5 40.4 18.3V26.1z"/>
    <path d="M42 36.4c5.9 0 10.2 3.6 10.2 9.3 0 5.6-4.3 9.4-10.2 9.4s-10.2-3.8-10.2-9.4c0-5.8 4.3-9.3 10.2-9.3zm14.5 34.7h-2.1l-3.2-5.5h-1.9v5.5h-1.7V58.6h4c2.4 0 4.4.9 4.4 3.4 0 1.8-1.2 3-3 3.3l3.5 5.8zm3.3 8.2v1.3h-5.1v3.6h5.7v1.4h-7.2V74.7h6.9V76h-5.4v3.3zm-20.6-8.2c-3.8 0-6.6-2.6-6.6-6.2 0-3.7 2.8-6.2 6.6-6.2s6.6 2.5 6.6 6.2-2.8 6.2-6.6 6.2zm2.7 14.5h-1.7l-1.1-2.7H34l-1.1 2.7h-1.7l4.7-10.9h1.4zm5.8-11c1.5 0 3.1.6 3.9 1.6l-1.2.9c-.3-.4-.7-.7-1.2-.9-.5-.2-1-.3-1.5-.3-2.5 0-4.1 1.9-4.1 4.2s1.6 4.2 4.1 4.2c.6 0 1.1-.1 1.6-.3.5-.2.9-.6 1.3-1.1l1.2.8c-.5.6-1.1 1.1-1.8 1.4-.7.3-1.5.5-2.3.4-3.3 0-5.7-2.3-5.7-5.5-.1-3.1 2.4-5.4 5.7-5.4zM15.3 36.4h15.1v3.8h-5.3V55h-4.5V40.2h-5.3zm1.9 22.2 2.7 10 3-10h1.9l2.9 10 2.8-10h1.8l-3.7 12.5h-1.8l-3-10-3 10h-1.9l-3.6-12.5zm13.2 25.6v1.4h-6.3V74.7h1.5v9.5zm-15.1-9.5h3.3c2.4 0 3.9.9 3.9 3 0 2.2-1.7 3.1-4 3.1h-1.7v4.8h-1.5V74.7zm49.3 5.9c-1.4-.4-2.8-1-2.8-2.9 0-2.1 1.9-3 3.7-3 1.2 0 2.2.4 3.1 1.2l-1.1 1c-.5-.7-1.3-1-2.1-1-1 0-2.1.5-2.1 1.7s1 1.4 2.2 1.8c1.5.4 3.2 1 3.2 3 0 2.2-1.8 3.2-3.8 3.2-.7 0-1.3-.1-2-.4-.6-.3-1.2-.6-1.6-1.1l1.2-1c.3.4.6.7 1.1.9.4.2.9.3 1.4.3 1 0 2.2-.5 2.2-1.8 0-1.1-1.2-1.5-2.6-1.9zm1.8-9.5-5.9-6.4v6.4h-1.8V58.7h1.8v5.4l5.6-5.4h2.4l-6.1 5.7 6.4 6.7zm-5-23.1h-2.2v7h-4.5V36.4h6.9c4.1 0 7.3 1.5 7.3 5.8S65.3 48 61.4 48z" fill="#001450" clip-path="url(#SVGID_2_)" fill-rule="evenodd" clip-rule="evenodd"/>
    <path class="st3" d="M51.5 60.1h-2.1v4h2c1.6 0 2.9-.5 2.9-2s-1.2-2-2.8-2zM42 51.2c3.1 0 5.4-2.3 5.4-5.5 0-3.1-2.2-5.4-5.4-5.4s-5.3 2.3-5.3 5.4c-.1 3.1 2.1 5.5 5.3 5.5zM21 77.7c0-1.3-1.1-1.7-2.5-1.7h-1.6v3.5h1.6c1.4 0 2.5-.5 2.5-1.8zm18.2-17.6c-2.8 0-4.7 2.2-4.7 4.8s1.8 4.8 4.7 4.8 4.7-2.1 4.7-4.8-1.8-4.8-4.7-4.8zm-4.7 21.5h4.1l-2.1-5.1zM61.2 40h-2v4.4h1.9c1.7 0 3.3-.5 3.3-2.3-.1-1.7-1.6-2.1-3.2-2.1z"/>
    <path class="st0" d="M15.2 89h53.5v.7H15.2z"/>
    <text transform="translate(13.857 106.074)" class="st5 st6 st7">2</text>
    <text transform="translate(20.624 106.074)" class="st5 st6 st7">0</text>
    <text transform="translate(27.392 106.074)" class="st5 st6 st7">1</text>
    <text transform="translate(34.159 106.074)" class="st5 st6 st7">8</text>
    <text transform="translate(40.927 106.074)" class="st5 st6 st7">-</text>
    <text transform="translate(45.157 106.074)" class="st5 st6 st7">2</text>
    <text transform="translate(51.924 106.074)" class="st5 st6 st7">0</text>
    <text transform="translate(58.691 106.074)" class="st5 st6 st7">2</text>
    <text transform="translate(65.459 106.074)" class="st5 st6 st7">2</text>
    <text transform="translate(107.755 116.225)" class="st8 st9 st7">1</text>
    <text transform="translate(114.522 116.225)" class="st8 st9 st7">9</text>
    <text transform="translate(121.29 116.225)" class="st8 st9 st7">0</text>
    <text transform="translate(128.056 116.225)" class="st8 st9 st7">4</text>
    <text transform="translate(134.825 116.225)" class="st8 st9 st7">l</text>
    <text transform="translate(138.209 116.225)" class="st8 st9 st7">a</text>
    <text transform="translate(144.975 116.225)" class="st8 st9 st7">b</text>
    <text transform="translate(151.743 116.225)" class="st8 st9 st7">s</text>
    <text transform="translate(160.202 116.225)" class="st8 st9 st7">i</text>
    <text transform="translate(163.586 116.225)" class="st8 st9 st7">s</text>
    <text transform="translate(172.046 116.225)" class="st8 st9 st7">a</text>
    <text transform="translate(181.351 116.225)" class="st8 st9 st7">2</text>
    <text transform="translate(188.118 116.225)" class="st8 st9 st7">0</text>
    <text transform="translate(194.886 116.225)" class="st8 st9 st7">2</text>
    <text transform="translate(201.653 116.225)" class="st8 st9 st7">2</text>
    <text transform="translate(210.958 116.225)" class="st8 st9 st7">T</text>
    <text transform="translate(217.725 116.225)" class="st8 st9 st7">o</text>
    <text transform="translate(224.493 116.225)" class="st8 st9 st7">p</text>
    <text transform="translate(139.477 130.605)" class="st8 st9 st7">W</text>
    <text transform="translate(149.629 130.605)" class="st8 st9 st7">o</text>
    <text transform="translate(156.395 130.605)" class="st8 st9 st7">r</text>
    <text transform="translate(160.626 130.605)" class="st8 st9 st7">k</text>
    <text transform="translate(166.547 130.605)" class="st8 st9 st7">p</text>
    <text transform="translate(173.314 130.605)" class="st8 st9 st7">l</text>
    <text transform="translate(176.698 130.605)" class="st8 st9 st7">a</text>
    <text transform="translate(183.465 130.605)" class="st8 st9 st7">c</text>
    <text transform="translate(189.387 130.605)" class="st8 st9 st7">e</text>
    <text transform="translate(196.154 130.605)" class="st8 st9 st7">!</text>
    <text transform="translate(125.52 144.988)" class="st8 st9 st7">5</text>
    <text transform="translate(134.825 144.988)" class="st8 st9 st7">Y</text>
    <text transform="translate(142.438 144.988)" class="st8 st9 st7">e</text>
    <text transform="translate(149.205 144.988)" class="st8 st9 st7">a</text>
    <text transform="translate(155.973 144.988)" class="st8 st9 st7">r</text>
    <text transform="translate(160.202 144.988)" class="st8 st9 st7">s</text>
    <text transform="translate(168.662 144.988)" class="st8 st9 st7">R</text>
    <text transform="translate(176.275 144.988)" class="st8 st9 st7">u</text>
    <text transform="translate(183.043 144.988)" class="st8 st9 st7">n</text>
    <text transform="translate(189.81 144.988)" class="st8 st9 st7">n</text>
    <text transform="translate(196.578 144.988)" class="st8 st9 st7">i</text>
    <text transform="translate(199.96 144.988)" class="st8 st9 st7">n</text>
    <text transform="translate(206.728 144.988)" class="st8 st9 st7">g</text>
</svg>